<?xml version="1.0" encoding="UTF-8" standalone="no"?>
<!-- Generator: Adobe Illustrator 16.0.3, SVG Export Plug-In . SVG Version: 6.00 Build 0)  -->
<svg id="svg2" xmlns:rdf="http://www.w3.org/1999/02/22-rdf-syntax-ns#" xmlns="http://www.w3.org/2000/svg" xml:space="preserve" height="500" viewBox="0 0 499.99776 499.97878" width="500" version="1.1" y="0px" x="0px" xmlns:cc="http://creativecommons.org/ns#" xmlns:dc="http://purl.org/dc/elements/1.1/"><metadata id="metadata87"><rdf:RDF><cc:Work rdf:about=""><dc:format>image/svg+xml</dc:format><dc:type rdf:resource="http://purl.org/dc/dcmitype/StillImage"/><dc:title/></cc:Work></rdf:RDF></metadata><g id="logo" fill="#2f2725" transform="matrix(1.4335161,0,0,1.4335161,-64.924538,-71.452226)"><g id="symbol"><path id="path6" d="m202.74,222.62c-1.879,0-3.401-1.523-3.401-3.402,0-0.611,0.174-1.178,0.457-1.672-2.346-2.348-5.493-5.494-5.799-5.801h-13.952l-20.277-20.273c-0.496,0.283-1.061,0.457-1.672,0.457-1.565,0-2.87-1.063-3.267-2.501h-10.88c3.238,12.512,7.19,23.887,11.843,34.02,1.87,4.07,3.86,7.936,5.953,11.613h9.901v-2.289l6.378,0.002v6.377h-6.378v-2.289h-8.87c2.547,4.322,5.249,8.363,8.101,12.105,3.795,0.805,7.606,1.504,11.428,2.121v-7.129l6.325-6.324c-0.737-1.299-0.566-2.973,0.541-4.078,1.329-1.33,3.482-1.33,4.812,0,1.328,1.328,1.328,3.48-0.001,4.809-1.106,1.107-2.78,1.279-4.078,0.541-2.285,2.285-5.483,5.482-5.798,5.799v6.672c8.147,1.254,16.344,2.092,24.561,2.502v-26.504c4.545,0.141,9.094,0.193,13.641,0.158v-7.414h-16.302c-0.398,1.438-1.702,2.5-3.267,2.5zm-2.791,25.113c-1.878,0-3.401-1.523-3.401-3.402,0-1.566,1.063-2.869,2.501-3.266v-7.521c-0.49-0.492-10.144-10.145-10.634-10.635h-4.732c-0.397,1.438-1.702,2.5-3.267,2.5-1.564,0-2.868-1.063-3.265-2.5h-7.421c-0.397,1.439-1.701,2.502-3.266,2.502-1.879,0-3.402-1.523-3.402-3.402s1.523-3.402,3.402-3.402c1.564,0,2.869,1.063,3.266,2.502h7.421c0.075-0.273,0.183-0.531,0.32-0.771l-17.706-17.704c-0.496,0.282-1.061,0.456-1.672,0.456-1.879,0-3.402-1.521-3.402-3.4s1.523-3.402,3.402-3.402c1.878,0,3.401,1.523,3.401,3.402,0,0.611-0.174,1.177-0.456,1.672,4.324,4.323,13.583,13.582,17.704,17.703,0.496-0.283,1.062-0.457,1.673-0.457,1.565,0,2.87,1.063,3.267,2.502h5.477l11.688,11.689v8.268c1.439,0.396,2.501,1.699,2.501,3.266,0.003,1.877-1.52,3.4-3.399,3.4zm11.162-33.486c-1.879,0-3.4-1.523-3.4-3.402,0-1.564,1.063-2.868,2.501-3.264v-6.713c-3.234,1.041-6.681,1.61-10.261,1.61-16.162,0-29.649-11.45-32.793-26.682h-26.363c0.831,4.053,1.739,7.987,2.705,11.831h11.33c0.396-1.439,1.701-2.502,3.267-2.502,1.878,0,3.4,1.523,3.4,3.402,0,0.611-0.174,1.176-0.456,1.672,5.568,5.566,19.34,19.335,19.75,19.746h13.953s3.841,3.842,6.327,6.328c0.496-0.281,1.061-0.455,1.671-0.455,1.564,0,2.869,1.061,3.266,2.5h16.302v-6.572h-7.932c-0.398,1.439-1.703,2.501-3.267,2.501zm0.9-14.01v7.344c1.15,0.316,2.049,1.215,2.365,2.364h7.932v-16.027c-2.994,2.688-6.476,4.842-10.297,6.319z"/><path id="path8" d="m222.27,241.14v26.633c-12.189-0.086-24.379-1.102-36.461-3.043,18.459,15.414,34.588,15.873,36.418,15.873,1.889,0,19.018-0.49,38.219-17.42,8.057-7.104,15.262-16.086,21.516-26.803-19.753,3.287-39.721,4.873-59.692,4.76z"/><path id="path10" d="m138.32,162.19h28.839c3.145-15.23,16.631-26.682,32.793-26.682,3.029,0,5.963,0.404,8.754,1.158v-74.207l-75.722,28.395s1.27,39.969,3.476,58.076c0.55,4.519,1.171,8.935,1.86,13.251zm56.05-82.436c3.053,0,5.527,2.475,5.527,5.527,0,1.221-0.399,2.344-1.068,3.258l-7.715-7.717c0.914-0.668,2.037-1.068,3.256-1.068zm-4.459,2.271,7.716,7.716c-0.914,0.669-2.037,1.067-3.257,1.067-3.053,0-5.529-2.475-5.529-5.527,0-1.218,0.4-2.342,1.07-3.256zm-31.869,64.645c0,3.053-2.475,5.527-5.527,5.527-1.219,0-2.343-0.399-3.257-1.068l7.716-7.716c0.669,0.914,1.068,2.038,1.068,3.257zm-5.527-5.527c1.22,0,2.343,0.4,3.257,1.068l-7.716,7.717c-0.669-0.914-1.068-2.038-1.068-3.258-0.001-3.053,2.474-5.527,5.527-5.527z"/><path id="path12" d="m235.92,193.08v34.087c18.127-0.842,36.211-3.086,54.092-6.73,3.805-8.738,7.113-18.341,9.914-28.763-9.244,6.791-20.654,10.805-33.004,10.805-11.472-0.001-22.134-3.464-31.002-9.399zm48.62,20.62c-13.512,2.592-27.24,4.385-40.967,5.344v-13.355c7.381,2.922,15.277,4.443,23.35,4.443,6.979,0,13.789-1.125,20.248-3.298-0.848,2.347-1.725,4.638-2.631,6.866z"/><path id="path14" d="m266.92,90.861c17.729,0,33.523,8.268,43.746,21.156,0.58-11.752,0.9-21.156,0.9-21.156l-89.26-33.472v55.74c10.19-13.523,26.37-22.269,44.61-22.269zm-36.96-22.425c8.111,3.043,20.074,7.529,39.59,14.848-0.877-0.037-1.752-0.074-2.635-0.074-10.137,0-19.828,2.32-28.801,6.898-2.84,1.449-5.559,3.137-8.154,5.004v-26.676z"/><path id="path16" d="m317.39,148.92c0.033-0.748,0.053-1.5,0.053-2.254,0-0.758-0.02-1.508-0.053-2.256l-7.352-2.387c-0.156-1.451-0.381-2.883-0.676-4.287l6.262-4.535c-0.4-1.451-0.863-2.877-1.387-4.271l-7.74,0.009c-0.594-1.323-1.252-2.612-1.971-3.861l4.549-6.261c-0.828-1.254-1.713-2.469-2.648-3.641l-7.346,2.396c-0.973-1.073-1.996-2.098-3.07-3.069l2.396-7.345c-1.17-0.936-2.385-1.82-3.639-2.65l-6.262,4.549c-1.25-0.719-2.537-1.377-3.861-1.971l0.01-7.74c-1.396-0.523-2.82-0.986-4.271-1.387l-4.535,6.262c-1.406-0.295-2.836-0.521-4.289-0.676l-2.387-7.35c-0.746-0.033-1.498-0.053-2.254-0.053s-1.506,0.02-2.254,0.053l-2.389,7.35c-1.451,0.155-2.883,0.381-4.289,0.676l-4.533-6.262c-1.449,0.4-2.875,0.863-4.27,1.387l0.008,7.74c-1.324,0.594-2.613,1.252-3.863,1.971l-6.26-4.549c-1.254,0.83-2.467,1.715-3.639,2.65l2.396,7.344c-1.074,0.973-2.1,1.996-3.072,3.07l-7.344-2.396c-0.936,1.172-1.818,2.387-2.648,3.641l4.547,6.26c-0.719,1.25-1.377,2.538-1.971,3.862l-7.75,0.01c-0.523,1.395-0.988,2.82-1.387,4.271l6.26,4.533c-0.295,1.406-0.521,2.838-0.676,4.291l-7.35,2.385c-0.033,0.748-0.053,1.498-0.053,2.256,0,0.754,0.02,1.506,0.053,2.254l7.35,2.387c0.154,1.453,0.381,2.884,0.674,4.29l-5.281,3.825,2.791-4.141c-0.66-1.059-1.395-2.066-2.195-3.016l-5.736,1.645c-1.246-1.164-2.623-2.187-4.127-3.017l-0.205-5.948c-1.143-0.463-2.326-0.85-3.543-1.148l-3.671,4.701c-0.839-0.104-1.687-0.174-2.554-0.174-0.866,0-1.715,0.07-2.554,0.174l-3.673-4.701c-1.217,0.299-2.398,0.686-3.541,1.148l-0.207,5.949c-1.502,0.83-2.879,1.852-4.124,3.016l-5.737-1.645c-0.801,0.949-1.535,1.957-2.195,3.016l3.336,4.949c-0.718,1.528-1.262,3.151-1.588,4.856l-4.877,1.775h-42.186c-0.778-4.568-1.482-9.241-2.102-14.032h-5.599v8.965l-2.977,1.24v11.907l2.977,1.24v8.963h11.362c-1.06-4.543-2.026-9.227-2.909-14.031h41.428l4.883,1.779c0.326,1.703,0.871,3.326,1.588,4.854l-3.336,4.949c0.66,1.059,1.395,2.066,2.195,3.016l5.737-1.645c1.244,1.164,2.622,2.186,4.124,3.016l0.207,5.949c1.143,0.465,2.324,0.85,3.543,1.148l3.672-4.701c0.838,0.104,1.687,0.174,2.553,0.174,0.867,0,1.715-0.07,2.555-0.174l3.67,4.701c1.217-0.299,2.401-0.686,3.543-1.148l0.205-5.947c1.504-0.832,2.883-1.854,4.127-3.018l5.736,1.645c0.801-0.949,1.535-1.957,2.195-3.016l-3.336-4.949c0.719-1.527,1.264-3.15,1.59-4.854l5.594-2.039c0.043-0.617,0.066-1.238,0.066-1.865s-0.023-1.248-0.066-1.865l-5.594-2.039c-0.045-0.23-0.104-0.455-0.154-0.684l7.256-0.008c0.596,1.324,1.252,2.613,1.973,3.863l-4.547,6.258c0.83,1.254,1.713,2.469,2.648,3.641l7.344-2.396c0.971,1.074,1.996,2.1,3.07,3.07l-2.395,7.344c1.172,0.936,2.385,1.818,3.639,2.65l6.26-4.549c1.25,0.721,2.539,1.379,3.863,1.973l-0.01,7.738c1.396,0.523,2.822,0.986,4.271,1.387l4.533-6.26c1.406,0.293,2.838,0.52,4.289,0.674l2.389,7.352c0.748,0.031,1.498,0.051,2.254,0.051s1.508-0.02,2.254-0.051l2.387-7.352c1.453-0.154,2.885-0.381,4.289-0.674l4.535,6.26c1.451-0.4,2.875-0.863,4.271-1.387l-0.01-7.738c1.324-0.596,2.613-1.252,3.863-1.973l6.26,4.549c1.254-0.83,2.467-1.715,3.639-2.65l-2.396-7.344c1.074-0.973,2.1-1.996,3.07-3.07l7.346,2.396c0.936-1.172,1.818-2.387,2.648-3.641l-4.549-6.26c0.719-1.25,1.377-2.537,1.971-3.861l7.742,0.008c0.521-1.397,0.984-2.821,1.385-4.272l-6.262-4.533c0.295-1.406,0.521-2.836,0.676-4.289l7.353-2.386zm-117.44,25.17c-2.818,0-5.104-2.283-5.104-5.102s2.285-5.102,5.104-5.102c2.816,0,5.102,2.283,5.102,5.102s-2.285,5.102-5.102,5.102zm66.969-62.432c5.822,0,11.311,1.424,16.141,3.938l-5.844,10.123c-3.105-1.531-6.602-2.391-10.297-2.391-3.141,0-6.137,0.621-8.873,1.746l-5.869-10.166c4.481-2.084,9.475-3.25,14.742-3.25zm7.086,42.096c-3.916,3.912-10.26,3.912-14.174,0-3.912-3.916-3.912-10.262,0-14.176,3.914-3.914,10.258-3.914,14.174,0,3.912,3.914,3.916,10.262,0,14.176zm-27.214-35.731,5.869,10.168c-5.137,3.971-8.572,10.037-9.025,16.918h-11.686c0.49-11.197,6.24-21.029,14.842-27.086zm0,57.284c-8.602-6.057-14.352-15.887-14.842-27.086h11.686c0.453,6.881,3.889,12.947,9.025,16.918l-5.869,10.168zm20.128,6.365c-5.268,0-10.262-1.166-14.742-3.25l5.869-10.166c2.736,1.125,5.732,1.746,8.873,1.746,3.695,0,7.191-0.859,10.297-2.391l5.844,10.123c-4.83,2.514-10.318,3.938-16.141,3.938zm18.834-5.494-5.844-10.123c5.426-3.643,9.236-9.5,10.141-16.278h11.736c-0.978,11.096-7.13,20.708-16.033,26.401zm4.297-32.625c-0.904-6.777-4.715-12.635-10.141-16.277l5.844-10.121c8.902,5.691,15.055,15.303,16.033,26.398h-11.74z"/></g><g id="statement"><g id="g19"><path id="path21" d="m84.364,390.7v-16.346h3.247l3.88,11.572c0.357,1.08,0.619,1.885,0.782,2.42,0.187-0.596,0.478-1.467,0.872-2.619l3.924-11.373h2.909v16.35h-2.09v-13.678l-4.755,13.678h-1.952l-4.728-13.92v13.92h-2.089z"/><path id="path23" d="m111.83,386.88,2.079,0.273c-0.327,1.209-0.933,2.15-1.816,2.818-0.885,0.668-2.014,1.004-3.387,1.004-1.731,0-3.104-0.535-4.117-1.602-1.015-1.068-1.521-2.566-1.521-4.492,0-1.994,0.512-3.541,1.538-4.643,1.024-1.1,2.354-1.65,3.989-1.65,1.582,0,2.874,0.539,3.877,1.619,1.003,1.078,1.504,2.598,1.504,4.555,0,0.119-0.004,0.301-0.01,0.537h-8.842c0.074,1.301,0.442,2.299,1.104,2.988,0.663,0.693,1.488,1.039,2.479,1.039,0.735,0,1.364-0.195,1.886-0.584,0.519-0.387,0.931-1.009,1.237-1.862zm-6.587-3.227h6.609c-0.09-1.002-0.342-1.754-0.759-2.252-0.64-0.777-1.468-1.164-2.485-1.164-0.921,0-1.696,0.311-2.324,0.928-0.627,0.621-0.974,1.449-1.041,2.488z"/><path id="path25" d="m125.04,386.37,1.971,0.273c-0.216,1.354-0.767,2.414-1.653,3.182-0.887,0.766-1.975,1.15-3.267,1.15-1.618,0-2.918-0.531-3.901-1.59-0.983-1.061-1.475-2.582-1.475-4.559,0-1.281,0.211-2.4,0.633-3.359,0.424-0.961,1.068-1.678,1.934-2.158,0.864-0.48,1.805-0.721,2.822-0.721,1.283,0,2.334,0.326,3.15,0.973,0.816,0.65,1.34,1.57,1.57,2.766l-1.954,0.307c-0.187-0.797-0.515-1.395-0.985-1.795-0.471-0.402-1.041-0.602-1.709-0.602-1.009,0-1.828,0.363-2.459,1.088-0.631,0.727-0.947,1.875-0.947,3.445,0,1.594,0.306,2.752,0.914,3.475,0.608,0.721,1.402,1.082,2.383,1.082,0.787,0,1.444-0.242,1.971-0.727,0.526-0.482,0.86-1.226,1.002-2.23z"/><path id="path27" d="m130.15,390.7v-16.346h2.004v5.861c0.932-1.086,2.107-1.631,3.525-1.631,0.873,0,1.631,0.172,2.273,0.52,0.643,0.346,1.104,0.822,1.381,1.434,0.277,0.609,0.416,1.494,0.416,2.654v7.508h-2.006v-7.506c0-1.002-0.215-1.732-0.647-2.189-0.431-0.459-1.042-0.686-1.831-0.686-0.592,0-1.146,0.152-1.667,0.463-0.521,0.307-0.891,0.725-1.112,1.252-0.221,0.529-0.332,1.258-0.332,2.186v6.48h-2.004z"/><path id="path29" d="m151.41,389.22c-0.74,0.639-1.455,1.092-2.145,1.355-0.688,0.264-1.424,0.395-2.215,0.395-1.302,0-2.302-0.318-3.001-0.953-0.698-0.635-1.049-1.449-1.049-2.438,0-0.578,0.132-1.107,0.397-1.588,0.263-0.48,0.609-0.863,1.036-1.152,0.429-0.291,0.91-0.51,1.446-0.658,0.393-0.105,0.99-0.205,1.785-0.303,1.621-0.193,2.815-0.422,3.582-0.689,0.008-0.277,0.01-0.453,0.01-0.527,0-0.82-0.189-1.395-0.568-1.73-0.512-0.455-1.275-0.682-2.288-0.682-0.943,0-1.643,0.166-2.093,0.496-0.448,0.332-0.781,0.92-0.998,1.764l-1.971-0.271c0.179-0.844,0.474-1.521,0.884-2.039,0.407-0.52,1-0.918,1.775-1.197,0.773-0.279,1.672-0.418,2.69-0.418,1.013,0,1.835,0.119,2.468,0.357s1.098,0.537,1.396,0.898c0.299,0.363,0.506,0.818,0.625,1.369,0.066,0.342,0.1,0.961,0.1,1.85v2.678c0,1.863,0.043,3.045,0.123,3.539,0.084,0.496,0.248,0.969,0.49,1.424h-2.09c-0.199-0.426-0.33-0.918-0.389-1.48zm-0.17-4.452c-0.728,0.295-1.818,0.547-3.275,0.754-0.826,0.119-1.41,0.252-1.753,0.4-0.342,0.146-0.604,0.363-0.791,0.65-0.186,0.285-0.279,0.602-0.279,0.949,0,0.533,0.204,0.977,0.61,1.334,0.404,0.355,0.998,0.533,1.779,0.533,0.773,0,1.461-0.17,2.065-0.508s1.045-0.799,1.328-1.383c0.215-0.451,0.324-1.119,0.324-1.998l-0.008-0.731z"/><path id="path31" d="m161.63,388.9,0.273,1.773c-0.566,0.119-1.07,0.178-1.516,0.178-0.729,0-1.291-0.117-1.693-0.346-0.4-0.23-0.682-0.533-0.846-0.91-0.164-0.373-0.244-1.162-0.244-2.367v-6.809h-1.479v-1.564h1.479v-2.932l2.004-1.205v4.137h2.021v1.564h-2.021v6.924c0,0.57,0.035,0.939,0.105,1.104s0.186,0.293,0.348,0.389c0.158,0.098,0.389,0.146,0.686,0.146,0.225,0,0.518-0.027,0.883-0.082z"/><path id="path33" d="m165.15,390.7v-11.844h1.801v1.789c0.461-0.84,0.889-1.391,1.279-1.658s0.822-0.402,1.291-0.402c0.678,0,1.367,0.217,2.068,0.65l-0.701,1.855c-0.49-0.289-0.979-0.432-1.471-0.432-0.438,0-0.83,0.131-1.18,0.395-0.35,0.266-0.598,0.631-0.748,1.1-0.225,0.713-0.336,1.496-0.336,2.342v6.205h-2.003z"/><path id="path35" d="m172.87,384.78c0-2.195,0.609-3.82,1.826-4.877,1.018-0.879,2.256-1.316,3.719-1.316,1.625,0,2.955,0.533,3.984,1.602,1.033,1.066,1.549,2.543,1.549,4.424,0,1.525-0.227,2.725-0.684,3.598-0.457,0.875-1.121,1.555-1.994,2.037-0.871,0.484-1.822,0.727-2.855,0.727-1.656,0-2.994-0.533-4.014-1.598-1.021-1.062-1.531-2.597-1.531-4.597zm2.057,0.002c0,1.52,0.33,2.654,0.992,3.408,0.662,0.758,1.492,1.135,2.496,1.135,0.996,0,1.824-0.379,2.486-1.139,0.66-0.76,0.99-1.916,0.99-3.471,0-1.467-0.33-2.576-0.998-3.332-0.664-0.754-1.49-1.131-2.479-1.131-1.004,0-1.834,0.375-2.496,1.125-0.661,0.753-0.991,1.888-0.991,3.405z"/><path id="path37" d="m187.01,390.7v-11.844h1.803v1.684c0.867-1.303,2.121-1.955,3.76-1.955,0.713,0,1.367,0.127,1.963,0.385,0.598,0.258,1.043,0.592,1.34,1.01,0.299,0.416,0.504,0.91,0.623,1.484,0.074,0.371,0.113,1.021,0.113,1.951v7.285h-2.006v-7.213c0-0.818-0.078-1.43-0.234-1.836-0.154-0.404-0.43-0.73-0.828-0.971-0.395-0.24-0.859-0.361-1.395-0.361-0.852,0-1.586,0.271-2.205,0.813-0.619,0.543-0.928,1.576-0.928,3.092v6.477h-2.006z"/><path id="path39" d="m200.42,376.65v-2.293h2.004v2.293h-2.004zm0,14.053v-11.844h2.004v11.844h-2.004z"/><path id="path41" d="m214.21,386.37,1.971,0.273c-0.217,1.354-0.766,2.414-1.654,3.182-0.885,0.766-1.975,1.15-3.266,1.15-1.617,0-2.918-0.531-3.902-1.59-0.983-1.061-1.473-2.582-1.473-4.559,0-1.281,0.209-2.4,0.635-3.359,0.422-0.961,1.067-1.678,1.93-2.158,0.865-0.48,1.807-0.721,2.822-0.721,1.285,0,2.334,0.326,3.152,0.973,0.816,0.65,1.338,1.57,1.57,2.766l-1.955,0.307c-0.186-0.797-0.514-1.395-0.984-1.795-0.473-0.402-1.041-0.602-1.709-0.602-1.01,0-1.83,0.363-2.461,1.088-0.631,0.727-0.945,1.875-0.945,3.445,0,1.594,0.305,2.752,0.914,3.475,0.607,0.721,1.402,1.082,2.383,1.082,0.785,0,1.443-0.242,1.971-0.727,0.526-0.482,0.858-1.226,1.001-2.23z"/><path id="path43" d="m218.53,387.17,1.988-0.305c0.111,0.793,0.424,1.404,0.934,1.828,0.512,0.422,1.229,0.635,2.145,0.635,0.928,0,1.613-0.189,2.061-0.564,0.449-0.377,0.672-0.818,0.672-1.326,0-0.451-0.199-0.811-0.6-1.072-0.277-0.178-0.963-0.404-2.061-0.682-1.475-0.371-2.496-0.691-3.066-0.965-0.566-0.271-0.998-0.646-1.291-1.125-0.295-0.48-0.441-1.01-0.441-1.59,0-0.529,0.121-1.018,0.363-1.469,0.242-0.447,0.572-0.822,0.988-1.121,0.314-0.229,0.74-0.424,1.279-0.584,0.539-0.162,1.121-0.24,1.74-0.24,0.93,0,1.748,0.135,2.451,0.402,0.705,0.268,1.223,0.631,1.559,1.09,0.336,0.457,0.566,1.07,0.691,1.838l-1.971,0.271c-0.088-0.613-0.348-1.094-0.777-1.438-0.426-0.344-1.031-0.516-1.816-0.516-0.924,0-1.584,0.152-1.979,0.457-0.396,0.305-0.594,0.664-0.594,1.074,0,0.26,0.084,0.494,0.246,0.703,0.166,0.217,0.422,0.395,0.771,0.537,0.203,0.074,0.795,0.244,1.781,0.514,1.422,0.379,2.414,0.691,2.977,0.932,0.563,0.242,1.004,0.594,1.324,1.055s0.48,1.035,0.48,1.719c0,0.668-0.197,1.299-0.588,1.891s-0.955,1.049-1.691,1.371c-0.738,0.322-1.572,0.486-2.502,0.486-1.543,0-2.721-0.32-3.527-0.961-0.808-0.638-1.322-1.587-1.546-2.845z"/></g><path id="path45" d="m248.7,388.77c-0.662,0.736-1.383,1.285-2.164,1.652-0.779,0.367-1.621,0.553-2.529,0.553-1.674,0-2.998-0.564-3.98-1.695-0.795-0.92-1.193-1.949-1.193-3.086,0-1.01,0.326-1.922,0.975-2.734,0.65-0.814,1.621-1.527,2.912-2.146-0.744-0.844-1.244-1.533-1.492-2.059-0.248-0.527-0.373-1.037-0.373-1.525,0-0.982,0.385-1.834,1.158-2.557,0.771-0.725,1.742-1.086,2.912-1.086,1.119,0,2.035,0.342,2.746,1.025,0.711,0.686,1.068,1.508,1.068,2.469,0,1.557-1.037,2.883-3.109,3.986l2.951,3.719c0.33-0.654,0.588-1.412,0.77-2.275l2.09,0.447c-0.357,1.424-0.84,2.588-1.451,3.494,0.752,1.002,1.604,1.842,2.557,2.521l-1.344,1.604c-0.811-0.52-1.643-1.29-2.504-2.307zm-1.27-1.577-3.664-4.572c-1.09,0.648-1.824,1.25-2.203,1.803-0.383,0.555-0.572,1.104-0.572,1.646,0,0.662,0.264,1.352,0.791,2.064,0.527,0.717,1.273,1.072,2.24,1.072,0.602,0,1.223-0.186,1.867-0.563,0.641-0.371,1.154-0.856,1.541-1.45zm-2.83-6.925c0.871-0.514,1.438-0.963,1.695-1.35,0.258-0.389,0.387-0.816,0.387-1.285,0-0.559-0.178-1.016-0.533-1.367-0.355-0.355-0.797-0.531-1.33-0.531-0.547,0-1.002,0.174-1.365,0.523-0.363,0.352-0.543,0.777-0.543,1.285,0,0.254,0.066,0.52,0.197,0.799s0.328,0.574,0.59,0.889l0.902,1.037z"/><g id="g47"><path id="path49" d="m260.74,385.45,2.039-0.188c0.096,0.818,0.32,1.488,0.672,2.014,0.354,0.523,0.898,0.949,1.643,1.271,0.742,0.326,1.576,0.486,2.504,0.486,0.822,0,1.551-0.123,2.182-0.369,0.629-0.244,1.098-0.582,1.406-1.008,0.307-0.43,0.463-0.895,0.463-1.398,0-0.51-0.148-0.955-0.443-1.338-0.299-0.381-0.787-0.701-1.471-0.963-0.438-0.17-1.406-0.436-2.908-0.793-1.498-0.361-2.551-0.701-3.152-1.021-0.783-0.41-1.365-0.918-1.748-1.525s-0.574-1.287-0.574-2.039c0-0.826,0.234-1.6,0.701-2.32,0.469-0.717,1.152-1.264,2.051-1.635,0.898-0.373,1.898-0.559,3-0.559,1.211,0,2.279,0.193,3.205,0.584,0.924,0.389,1.635,0.963,2.135,1.721,0.496,0.756,0.764,1.613,0.803,2.572l-2.074,0.152c-0.111-1.02-0.488-1.791-1.131-2.311-0.643-0.521-1.592-0.781-2.846-0.781-1.307,0-2.258,0.238-2.857,0.717-0.598,0.479-0.896,1.057-0.896,1.73,0,0.586,0.211,1.07,0.635,1.447,0.414,0.379,1.502,0.766,3.258,1.162,1.758,0.396,2.961,0.744,3.615,1.041,0.951,0.438,1.654,0.992,2.109,1.664,0.451,0.672,0.68,1.445,0.68,2.32,0,0.869-0.248,1.686-0.748,2.455-0.496,0.766-1.211,1.365-2.143,1.791-0.934,0.426-1.982,0.641-3.148,0.641-1.475,0-2.713-0.217-3.715-0.646-0.998-0.43-1.781-1.078-2.348-1.943-0.573-0.862-0.87-1.841-0.899-2.931z"/><path id="path51" d="m276.21,384.78c0-2.195,0.607-3.82,1.826-4.877,1.016-0.879,2.256-1.316,3.717-1.316,1.627,0,2.955,0.533,3.988,1.602,1.031,1.066,1.547,2.543,1.547,4.424,0,1.525-0.229,2.725-0.686,3.598-0.457,0.875-1.119,1.555-1.992,2.037-0.873,0.484-1.824,0.727-2.857,0.727-1.654,0-2.992-0.533-4.012-1.598-1.021-1.062-1.531-2.597-1.531-4.597zm2.057,0.002c0,1.52,0.328,2.654,0.992,3.408,0.66,0.758,1.492,1.135,2.494,1.135,0.996,0,1.826-0.379,2.488-1.139,0.66-0.76,0.992-1.916,0.992-3.471,0-1.467-0.334-2.576-0.998-3.332-0.666-0.754-1.492-1.131-2.482-1.131-1.002,0-1.834,0.375-2.494,1.125-0.664,0.753-0.992,1.888-0.992,3.405z"/><path id="path53" d="m290.67,390.7v-10.279h-1.768v-1.564h1.768v-1.256c0-0.795,0.07-1.385,0.211-1.771,0.191-0.52,0.531-0.939,1.016-1.262s1.166-0.484,2.043-0.484c0.564,0,1.189,0.066,1.873,0.199l-0.301,1.746c-0.416-0.074-0.809-0.111-1.182-0.111-0.609,0-1.041,0.131-1.293,0.389-0.252,0.262-0.381,0.746-0.381,1.459v1.092h2.313v1.564h-2.295v10.279h-2.004z"/><path id="path55" d="m302.36,388.9,0.271,1.773c-0.564,0.119-1.07,0.178-1.514,0.178-0.729,0-1.295-0.117-1.693-0.346-0.402-0.23-0.684-0.533-0.848-0.91-0.164-0.373-0.244-1.162-0.244-2.367v-6.809h-1.479v-1.564h1.479v-2.932l2.006-1.205v4.137h2.021v1.564h-2.021v6.924c0,0.57,0.033,0.939,0.105,1.104,0.07,0.164,0.186,0.293,0.346,0.389,0.16,0.098,0.389,0.146,0.686,0.146,0.225,0,0.52-0.027,0.885-0.082z"/><path id="path57" d="m308.53,390.7-3.604-11.844h2.096l1.891,6.832,0.678,2.545c0.029-0.125,0.236-0.938,0.625-2.438l1.889-6.939h2.053l1.777,6.869,0.58,2.264,0.68-2.287,2.043-6.846h1.949l-3.715,11.844h-2.074l-1.883-7.094-0.467-2.018-2.428,9.111h-2.09z"/><path id="path59" d="m331.13,389.22c-0.742,0.639-1.457,1.092-2.145,1.355s-1.428,0.395-2.215,0.395c-1.303,0-2.303-0.318-3.002-0.953-0.701-0.635-1.049-1.449-1.049-2.438,0-0.578,0.131-1.107,0.395-1.588,0.266-0.48,0.609-0.863,1.039-1.152,0.428-0.291,0.908-0.51,1.443-0.658,0.396-0.105,0.99-0.205,1.787-0.303,1.623-0.193,2.816-0.422,3.582-0.689,0.008-0.277,0.012-0.453,0.012-0.527,0-0.82-0.191-1.395-0.57-1.73-0.514-0.455-1.275-0.682-2.287-0.682-0.945,0-1.641,0.166-2.092,0.496-0.449,0.332-0.783,0.92-0.998,1.764l-1.971-0.271c0.178-0.844,0.471-1.521,0.881-2.039,0.41-0.52,1.002-0.918,1.775-1.197,0.775-0.279,1.672-0.418,2.693-0.418,1.012,0,1.836,0.119,2.469,0.357s1.098,0.537,1.395,0.898c0.297,0.363,0.506,0.818,0.625,1.369,0.068,0.342,0.102,0.961,0.102,1.85v2.678c0,1.863,0.041,3.045,0.123,3.539,0.084,0.496,0.244,0.969,0.488,1.424h-2.09c-0.202-0.426-0.333-0.918-0.39-1.48zm-0.169-4.452c-0.729,0.295-1.822,0.547-3.279,0.754-0.824,0.119-1.408,0.252-1.75,0.4-0.342,0.146-0.605,0.363-0.791,0.65-0.186,0.285-0.279,0.602-0.279,0.949,0,0.533,0.201,0.977,0.607,1.334,0.406,0.355,1,0.533,1.779,0.533,0.775,0,1.465-0.17,2.066-0.508s1.045-0.799,1.328-1.383c0.217-0.451,0.324-1.119,0.324-1.998l-0.005-0.731z"/><path id="path61" d="m336.61,390.7v-11.844h1.801v1.789c0.463-0.84,0.889-1.391,1.279-1.658s0.822-0.402,1.293-0.402c0.676,0,1.365,0.217,2.066,0.65l-0.699,1.855c-0.49-0.289-0.982-0.432-1.473-0.432-0.438,0-0.83,0.131-1.18,0.395-0.35,0.266-0.598,0.631-0.748,1.1-0.223,0.713-0.336,1.496-0.336,2.342v6.205h-2.003z"/><path id="path63" d="m352.86,386.88,2.08,0.273c-0.328,1.209-0.932,2.15-1.816,2.818s-2.014,1.004-3.387,1.004c-1.732,0-3.104-0.535-4.119-1.602-1.012-1.068-1.52-2.566-1.52-4.492,0-1.994,0.514-3.541,1.537-4.643,1.025-1.1,2.355-1.65,3.988-1.65,1.582,0,2.875,0.539,3.879,1.619,1.002,1.078,1.504,2.598,1.504,4.555,0,0.119-0.004,0.301-0.012,0.537h-8.842c0.074,1.301,0.445,2.299,1.105,2.988,0.662,0.693,1.488,1.039,2.479,1.039,0.736,0,1.363-0.195,1.885-0.584s0.934-1.009,1.239-1.862zm-6.588-3.227h6.609c-0.09-1.002-0.342-1.754-0.758-2.252-0.637-0.777-1.467-1.164-2.484-1.164-0.922,0-1.695,0.311-2.324,0.928-0.629,0.621-0.975,1.449-1.043,2.488z"/></g></g><g id="logotype"><path id="path66" d="m125.5,333.71,0,0c-1.386-0.773-2.967-1.354-4.697-1.732l-4.729-0.857c-0.037-0.008-4.611-0.693-4.611-0.693-1.277-0.193-2.42-0.496-3.396-0.896-0.777-0.32-1.395-0.738-1.829-1.244-0.292-0.338-0.434-0.865-0.434-1.609v-3.498c0-1.65,0.594-2.043,0.789-2.172,0.875-0.578,1.945-0.859,3.272-0.859h17.788v-9.029h-17.328c-1.732,0-3.412,0.162-4.99,0.482-1.736,0.352-3.297,0.982-4.641,1.871-1.423,0.941-2.566,2.203-3.398,3.742-0.832,1.541-1.254,3.434-1.254,5.621v3.902c0,2.363,0.473,4.385,1.408,6,0.912,1.582,2.143,2.873,3.656,3.844,1.393,0.891,2.988,1.57,4.742,2.02,1.568,0.402,3.203,0.73,4.856,0.971l4.626,0.639c1.32,0.168,2.487,0.426,3.48,0.771,0.789,0.27,1.403,0.623,1.826,1.045,0.2,0.201,0.301,0.58,0.301,1.123v4.535c0,0.947-0.17,1.445-0.314,1.695-0.207,0.361-0.464,0.621-0.805,0.813-0.473,0.268-1.047,0.455-1.709,0.559-0.84,0.131-1.718,0.199-2.609,0.199h-18.13v8.957h18.188c1.642,0,3.317-0.16,4.982-0.477,1.818-0.346,3.471-0.971,4.916-1.857,1.516-0.932,2.769-2.16,3.723-3.654,1.011-1.586,1.522-3.551,1.522-5.842v-5.162c0-2.252-0.493-4.168-1.467-5.697-0.937-1.472-2.193-2.652-3.734-3.511zm-55.897-0.02c-1.588-3.11-11.583-22.67-11.583-22.67h-10.196v48.893h9.727v-29.354c2.558,4.973,8.544,16.611,8.544,16.611h7s5.986-11.639,8.544-16.611v29.354h9.728v-48.889h-10.382s-9.817,19.55-11.382,22.67z"/><path id="path68" d="m184.75,330.36h-15.838v-19.338h-9.727v48.893h9.727v-20.703h15.838v20.703h9.725v-48.893h-9.725v19.338z"/><path id="path70" d="m225.29,323h-0.002c-1.383-0.811-2.959-1.365-4.684-1.645-1.539-0.248-3.164-0.377-4.826-0.377h-14.12v8.748h13.946l2.525,0.16c0.555,0.068,1.094,0.227,1.539,0.461,0.346,0.182,0.611,0.422,0.832,0.754,0.096,0.143,0.254,0.496,0.254,1.268v1.5c-0.869-0.018-1.889-0.037-1.889-0.037-1.701-0.059-3.439-0.029-5.152,0.094-1.771,0.121-3.506,0.387-5.15,0.781-1.829,0.438-3.483,1.188-4.92,2.223-1.508,1.092-2.713,2.543-3.586,4.311-0.861,1.748-1.297,3.92-1.297,6.451,0,2.15,0.342,4.023,1.02,5.57,0.703,1.613,1.723,2.953,3.033,3.98,1.248,0.984,2.734,1.701,4.417,2.135,1.541,0.396,3.242,0.598,5.055,0.598,2.494,0,4.877-0.387,7.088-1.15,0.602-0.211,1.188-0.467,1.754-0.762,0.02,0.379,0.094,1.844,0.094,1.844h9.014v-27.615c0-2.211-0.455-4.117-1.352-5.662-0.893-1.532-2.104-2.753-3.595-3.63zm-4.533,25.252c-0.941,0.9-1.941,1.611-3.004,2.063-1.428,0.605-2.957,0.914-4.545,0.914-0.822,0-1.584-0.084-2.262-0.246-0.549-0.131-1.025-0.34-1.416-0.619-0.289-0.207-0.508-0.49-0.684-0.889-0.211-0.479-0.322-1.18-0.322-2.021,0-1.17,0.168-2.121,0.49-2.75,0.297-0.582,0.658-0.988,1.137-1.273,0.611-0.363,1.354-0.619,2.207-0.754,1.041-0.17,2.174-0.256,3.371-0.256h5.027c0.001,1.415,0.001,5.13,0.001,5.831z"/><path id="path72" d="m244.88,331.15c0.141-0.318,0.301-0.535,0.486-0.656,0.273-0.18,0.67-0.307,1.146-0.369l2.596-0.152,13.521,0.002-0.135-8.957h-13.391c-12.396,0-14.248,7.371-14.248,11.764v15.422c0,4.373,1.852,11.707,14.248,11.707h13.525l-0.135-8.957h-13.391l-2.633-0.158c-0.408-0.057-0.797-0.184-1.109-0.385-0.125-0.078-0.313-0.23-0.496-0.633-0.084-0.189-0.285-0.777-0.285-2.086v-14.398c0.002-1.273,0.19-1.888,0.301-2.144z"/><path id="path74" d="m300.77,321h-12.711s-8.186,9.152-10.818,12.098v-24.143h-9.727v50.955h9.738s-0.061-12.943-0.063-13.697c0.061-0.066,0.066-0.074,0.135-0.152,1.34,1.6,11.602,13.85,11.602,13.85h12.711s-16.797-19.189-17.938-20.494c1.18-1.28,17.08-18.43,17.08-18.43z"/><path id="path76" d="m328.1,323.33h-0.002c-1.346-0.887-2.908-1.518-4.643-1.869-1.576-0.32-3.236-0.482-4.932-0.482h-3.5c-1.732,0-3.412,0.162-4.988,0.482-1.74,0.352-3.297,0.986-4.631,1.881-1.406,0.949-2.537,2.217-3.365,3.777-0.83,1.555-1.248,3.451-1.248,5.633v14.52c0,2.32,0.285,4.219,0.875,5.809,0.637,1.717,1.629,3.125,2.945,4.186,1.268,1.02,2.824,1.73,4.627,2.121,1.588,0.344,3.412,0.52,5.422,0.52h15.836v-8.957h-15.83c-1.904,0-2.691-0.311-2.943-0.443-0.414-0.221-0.674-0.479-0.816-0.813-0.246-0.563-0.377-1.311-0.391-2.229,0,0.002-0.008-0.865-0.012-1.617h8.014c1.674,0,3.314-0.139,4.869-0.412,1.727-0.303,3.283-0.869,4.627-1.684,1.457-0.887,2.623-2.102,3.473-3.621,0.848-1.518,1.277-3.42,1.277-5.656v-1.721c0-2.18-0.422-4.076-1.252-5.637-0.83-1.567-1.978-2.841-3.406-3.788zm-5.393,12.699-0.002,0.002c-0.135,0.328-0.293,0.553-0.482,0.688-0.256,0.182-0.637,0.313-1.102,0.383l-2.596,0.172h-7.975v-4.006c0-1.162,0.154-1.797,0.283-2.127,0.111-0.285,0.238-0.475,0.387-0.572,0.266-0.184,0.662-0.316,1.148-0.391l2.596-0.17h3.619c1.148,0,2.1,0.063,2.826,0.189,0.402,0.068,0.717,0.195,0.908,0.361,0.158,0.135,0.305,0.406,0.406,0.762,0.178,0.613,0.27,1.523,0.27,2.635,0.002,1.143-0.153,1.76-0.286,2.074z"/><path id="path78" d="m349.68,322c-1.559,0.617-2.922,1.42-4.053,2.387-0.139,0.115-0.271,0.301-0.408,0.424-0.09-1.414-0.246-3.826-0.246-3.826h-8.87v38.928h9.727v-23.305c0.389-0.473,2.383-2.914,2.383-2.914,0.709-0.893,1.408-1.619,2.084-2.168,0.57-0.467,1.236-0.824,1.979-1.066,0.811-0.266,1.898-0.416,3.24-0.445h3.393v-9.029h-3.453c-2.255,0.043-4.191,0.385-5.773,1.014z"/><path id="path80" d="m389.33,341.19c-1.322-1.516-2.982-2.668-4.938-3.432-1.729-0.676-3.617-1.178-5.607-1.494-1.719-0.27-3.338-0.609-4.811-1.004-1.24-0.334-2.268-0.799-3.053-1.381-0.158-0.119-0.531-0.396-0.531-1.506,0-0.979,0.209-1.299,0.234-1.334,0.199-0.279,0.445-0.475,0.773-0.615,0.486-0.205,1.068-0.33,1.725-0.371-0.064,0.004,2.688-0.08,2.688-0.08h13.465v-8.957h-14.467c-1.689,0-3.33,0.15-4.877,0.447-1.695,0.326-3.229,0.9-4.559,1.709-1.461,0.885-2.635,2.131-3.484,3.701-0.836,1.545-1.26,3.436-1.26,5.621,0,2.996,0.742,5.377,2.201,7.078,1.334,1.549,3.014,2.721,4.992,3.482,1.768,0.682,3.691,1.166,5.717,1.439,1.742,0.238,3.389,0.531,4.9,0.877,1.225,0.279,2.229,0.709,2.986,1.273,0.162,0.119,0.533,0.396,0.533,1.563,0,0.85-0.193,1.189-0.279,1.297-0.297,0.379-0.637,0.643-1.072,0.834-0.566,0.25-1.223,0.412-1.955,0.479,0.098-0.004-2.705,0.135-2.705,0.135h-14.48v8.957h14.754c1.752,0,3.473-0.117,5.113-0.342,1.85-0.254,3.531-0.803,4.994-1.629,1.584-0.895,2.861-2.156,3.801-3.752,0.941-1.604,1.42-3.656,1.42-6.102,0-2.889-0.746-5.209-2.218-6.893z"/></g></g></svg>
