<?xml version="1.0" encoding="UTF-8" standalone="no"?>
<!-- Created with Inkscape (http://www.inkscape.org/) -->
<svg id="svg2" xmlns:rdf="http://www.w3.org/1999/02/22-rdf-syntax-ns#" xmlns="http://www.w3.org/2000/svg" viewBox="0 0 99.476 66.076" version="1.1" xmlns:cc="http://creativecommons.org/ns#" xmlns:dc="http://purl.org/dc/elements/1.1/">
 <metadata id="metadata7">
  <rdf:RDF>
   <cc:Work rdf:about="">
    <dc:format>image/svg+xml</dc:format>
    <dc:type rdf:resource="http://purl.org/dc/dcmitype/StillImage"/>
    <dc:title/>
   </cc:Work>
  </rdf:RDF>
 </metadata>
 <g id="layer1" transform="translate(-169.58482,-513.45996)">
  <g id="g5743">
   <rect id="rect4944-1" height="55.605" width="61.26" y="518.46" x="174.58" fill="#00F"/>
   <path id="path5719" fill="#FFF" d="m235.26,574.54-12.727,0-16.137-22.289c-1.1953,0.0469-2.168,0.0703-2.918,0.0703-0.30471,0.00003-0.63283-0.006-0.98438-0.0176-0.35158-0.0117-0.71486-0.0293-1.0898-0.0527v13.852c-0.00002,3,0.32811,4.8633,0.98437,5.5898,0.89061,1.0312,2.2266,1.5469,4.0078,1.5469h1.8633v1.3008h-20.426v-1.3008h1.793c2.0156,0,3.457-0.65625,4.3242-1.9688,0.49218-0.72656,0.73828-2.4492,0.73829-5.168v-30.797c-0.00001-3-0.32814-4.8632-0.98438-5.5898-0.91407-1.0312-2.2734-1.5468-4.0781-1.5469h-1.793v-1.3008h17.367c5.0625,0.00005,8.7949,0.36919,11.197,1.1074,2.4023,0.73833,4.4414,2.0977,6.1172,4.0781,1.6757,1.9805,2.5136,4.3418,2.5137,7.084-0.00004,2.9297-0.95512,5.4727-2.8652,7.6289-1.9102,2.1563-4.8692,3.6797-8.877,4.5703l9.8438,13.676c2.25,3.1406,4.1836,5.2266,5.8008,6.2578s3.7265,1.6875,6.3281,1.9688zm-33.855-24.504c0.4453,0.00002,0.83201,0.006,1.1602,0.0176,0.3281,0.0117,0.59764,0.0176,0.80859,0.0176,4.5468,0.00003,7.9746-0.98435,10.283-2.9531,2.3086-1.9687,3.4629-4.4765,3.4629-7.5234-0.00003-2.9765-0.93167-5.3964-2.7949-7.2598-1.8633-1.8632-4.3301-2.7949-7.4004-2.7949-1.3594,0.00005-3.1992,0.2227-5.5195,0.66797z"/>
   <path id="path5721" fill="#00F" d="m263.56,565.81-0.34145,8.7224-25.081,0,0-1.1175,18.873-25.143-9.3122,0c-2.0073,0.00003-3.3214,0.12936-3.9422,0.38801-0.62083,0.2587-1.1278,0.75018-1.521,1.4744-0.55874,1.0347-0.87949,2.3177-0.96226,3.849h-1.2416l0.18624-7.8843h23.839v1.1485l-19.059,25.205h10.368c2.1728,0,3.6473-0.18107,4.4233-0.54322,0.776-0.36213,1.402-0.99847,1.878-1.909,0.33108-0.6622,0.61045-2.059,0.8381-4.1905z"/>
  </g>
 </g>
</svg>
