<?xml version="1.0" encoding="UTF-8" standalone="no"?>
<!-- Generator: Adobe Illustrator 16.0.3, SVG Export Plug-In . SVG Version: 6.00 Build 0)  -->

<svg
   xmlns:dc="http://purl.org/dc/elements/1.1/"
   xmlns:cc="http://creativecommons.org/ns#"
   xmlns:rdf="http://www.w3.org/1999/02/22-rdf-syntax-ns#"
   xmlns:svg="http://www.w3.org/2000/svg"
   xmlns="http://www.w3.org/2000/svg"
   xmlns:sodipodi="http://sodipodi.sourceforge.net/DTD/sodipodi-0.dtd"
   xmlns:inkscape="http://www.inkscape.org/namespaces/inkscape"
   version="1.1"
   x="0px"
   y="0px"
   width="619.125"
   height="122.764"
   viewBox="0 0 619.12498 122.764"
   xml:space="preserve"
   id="svg2"
   inkscape:version="0.48.4 r9939"
   sodipodi:docname="logo.svg"><metadata
     id="metadata40"><rdf:RDF><cc:Work
         rdf:about=""><dc:format>image/svg+xml</dc:format><dc:type
           rdf:resource="http://purl.org/dc/dcmitype/StillImage" /></cc:Work></rdf:RDF></metadata><defs
     id="defs38" /><sodipodi:namedview
     pagecolor="#ffffff"
     bordercolor="#666666"
     borderopacity="1"
     objecttolerance="10"
     gridtolerance="10"
     guidetolerance="10"
     inkscape:pageopacity="0"
     inkscape:pageshadow="2"
     inkscape:window-width="1920"
     inkscape:window-height="1020"
     id="namedview36"
     showgrid="false"
     fit-margin-top="0"
     fit-margin-left="0"
     fit-margin-right="0"
     fit-margin-bottom="0"
     inkscape:zoom="0.97117596"
     inkscape:cx="310.16886"
     inkscape:cy="62.962501"
     inkscape:window-x="0"
     inkscape:window-y="27"
     inkscape:window-maximized="1"
     inkscape:current-layer="svg2" /><g
     id="others"
     transform="translate(-53.308005,-39.411)" /><g
     id="logo"
     transform="translate(-53.308005,-39.411)"><g
       id="symbol"><path
         style="fill:#2f2725"
         d="m 97.755,130.284 c -1.033,0 -1.87,-0.838 -1.87,-1.871 0,-0.336 0.096,-0.647 0.251,-0.92 -1.291,-1.291 -3.021,-3.021 -3.19,-3.189 -0.388,0 -7.673,0 -7.673,0 l -11.152,-11.15 c -0.273,0.154 -0.584,0.25 -0.92,0.25 -0.861,0 -1.579,-0.584 -1.797,-1.375 h -5.982 c 1.78,6.881 3.954,13.137 6.513,18.711 1.028,2.238 2.124,4.364 3.274,6.387 h 5.446 v -1.258 h 3.507 v 3.508 h -3.507 v -1.26 h -4.879 c 1.401,2.378 2.888,4.601 4.456,6.658 2.087,0.443 4.184,0.828 6.285,1.167 v -3.921 l 3.479,-3.479 c -0.405,-0.714 -0.312,-1.635 0.297,-2.242 0.73,-0.732 1.916,-0.732 2.646,0 0.73,0.73 0.73,1.914 0,2.645 -0.609,0.609 -1.53,0.703 -2.243,0.297 -1.257,1.258 -3.017,3.016 -3.189,3.189 0,0.174 0,1.852 0,3.67 4.48,0.689 8.989,1.15 13.508,1.376 V 132.9 c 2.5,0.077 5.002,0.106 7.503,0.087 v -4.078 h -8.967 c -0.218,0.791 -0.936,1.375 -1.796,1.375 z m -1.535,13.812 c -1.032,0 -1.87,-0.838 -1.87,-1.871 0,-0.861 0.584,-1.578 1.375,-1.796 0,-1.657 0,-3.898 0,-4.137 -0.27,-0.271 -5.578,-5.579 -5.849,-5.849 -0.196,0 -1.451,0 -2.603,0 -0.218,0.79 -0.936,1.375 -1.796,1.375 -0.86,0 -1.578,-0.585 -1.796,-1.375 H 79.6 c -0.219,0.791 -0.936,1.375 -1.796,1.375 -1.034,0 -1.872,-0.838 -1.872,-1.871 0,-1.033 0.838,-1.871 1.872,-1.871 0.86,0 1.577,0.584 1.796,1.376 h 4.081 c 0.042,-0.151 0.101,-0.292 0.176,-0.425 L 74.12,119.29 c -0.273,0.155 -0.584,0.251 -0.92,0.251 -1.033,0 -1.871,-0.836 -1.871,-1.869 0,-1.033 0.838,-1.871 1.871,-1.871 1.032,0 1.87,0.838 1.87,1.871 0,0.336 -0.096,0.646 -0.25,0.919 2.378,2.378 7.47,7.47 9.736,9.736 0.273,-0.155 0.585,-0.251 0.921,-0.251 0.86,0 1.578,0.584 1.796,1.376 1.337,0 3.013,0 3.013,0 l 6.429,6.429 v 4.548 c 0.792,0.218 1.376,0.935 1.376,1.796 0,1.033 -0.838,1.871 -1.871,1.871 z m 6.138,-18.417 c -1.033,0 -1.87,-0.838 -1.87,-1.872 0,-0.859 0.585,-1.576 1.376,-1.795 v -3.692 c -1.779,0.572 -3.675,0.886 -5.644,0.886 -8.889,0 -16.308,-6.298 -18.036,-14.675 h -14.5 c 0.457,2.229 0.956,4.393 1.487,6.507 h 6.231 c 0.218,-0.792 0.936,-1.376 1.797,-1.376 1.032,0 1.87,0.838 1.87,1.871 0,0.336 -0.096,0.646 -0.251,0.919 3.063,3.063 10.637,10.635 10.862,10.861 0.389,0 7.674,0 7.674,0 0,0 2.113,2.113 3.48,3.479 0.272,-0.155 0.583,-0.25 0.919,-0.25 0.86,0 1.578,0.583 1.796,1.375 2.099,0 5.88,0 8.967,0 v -3.614 h -4.362 c -0.217,0.791 -0.934,1.376 -1.796,1.376 z m 0.496,-7.706 c 0,0.736 0,2.68 0,4.039 0.632,0.174 1.126,0.668 1.301,1.301 1.096,0 2.719,0 4.362,0 v -8.815 c -1.647,1.477 -3.562,2.663 -5.663,3.475 z"
         id="path7"
         inkscape:connector-curvature="0" /><path
         style="fill:#2f2725"
         d="m 108.498,140.472 v 14.647 c -6.704,-0.047 -13.408,-0.605 -20.054,-1.673 10.152,8.478 19.023,8.729 20.03,8.729 1.038,0 10.46,-0.27 21.021,-9.58 4.432,-3.907 8.394,-8.848 11.834,-14.742 -10.864,1.81 -21.848,2.682 -32.831,2.619 z"
         id="path9"
         inkscape:connector-curvature="0" /><path
         style="fill:#2f2725"
         d="m 62.322,97.047 h 15.862 c 1.729,-8.377 9.147,-14.674 18.036,-14.674 1.666,0 3.279,0.223 4.814,0.637 V 42.2 L 59.388,57.817 c 0,0 0.698,21.984 1.912,31.943 0.302,2.485 0.643,4.914 1.022,7.287 z M 93.151,51.709 c 1.68,0 3.04,1.359 3.04,3.039 0,0.672 -0.22,1.289 -0.587,1.791 l -4.243,-4.244 c 0.502,-0.367 1.12,-0.586 1.79,-0.586 z m -2.452,1.249 4.243,4.244 c -0.503,0.367 -1.12,0.588 -1.791,0.588 -1.679,0 -3.041,-1.361 -3.041,-3.041 0,-0.67 0.221,-1.288 0.589,-1.791 z M 73.171,88.512 c 0,1.68 -1.36,3.041 -3.04,3.041 -0.67,0 -1.289,-0.221 -1.791,-0.588 l 4.244,-4.244 c 0.367,0.502 0.587,1.121 0.587,1.791 z m -3.04,-3.039 c 0.671,0 1.288,0.219 1.791,0.586 l -4.243,4.244 c -0.368,-0.502 -0.588,-1.119 -0.588,-1.791 0,-1.679 1.361,-3.039 3.04,-3.039 z"
         id="path11"
         inkscape:connector-curvature="0" /><path
         style="fill:#2f2725"
         d="m 116.003,114.036 v 18.748 c 9.97,-0.463 19.916,-1.697 29.75,-3.701 2.093,-4.807 3.912,-10.088 5.453,-15.82 -5.084,3.734 -11.359,5.942 -18.152,5.942 -6.311,0 -12.174,-1.905 -17.051,-5.169 z m 26.74,11.341 c -7.432,1.426 -14.982,2.412 -22.531,2.939 0,-2.667 0,-3.922 0,-7.346 4.059,1.606 8.402,2.443 12.842,2.443 3.838,0 7.584,-0.619 11.137,-1.814 -0.467,1.292 -0.95,2.552 -1.448,3.778 z"
         id="path13"
         inkscape:connector-curvature="0" /><path
         style="fill:#2f2725"
         d="m 133.054,57.817 c 9.751,0 18.438,4.549 24.061,11.637 0.318,-6.463 0.495,-11.637 0.495,-11.637 L 108.52,39.411 v 30.656 c 5.6,-7.44 14.504,-12.25 24.534,-12.25 z M 112.729,45.483 c 4.462,1.674 11.041,4.143 21.774,8.166 -0.482,-0.02 -0.963,-0.041 -1.449,-0.041 -5.575,0 -10.905,1.277 -15.84,3.795 -1.563,0.797 -3.058,1.725 -4.485,2.752 0,-6.42 0,-10.01 0,-14.672 z"
         id="path15"
         inkscape:connector-curvature="0" /><path
         style="fill:#2f2725"
         d="m 160.813,89.752 c 0.019,-0.412 0.029,-0.826 0.029,-1.24 0,-0.416 -0.011,-0.83 -0.029,-1.24 l -4.043,-1.313 c -0.086,-0.799 -0.21,-1.586 -0.372,-2.359 l 3.444,-2.494 c -0.22,-0.797 -0.476,-1.582 -0.763,-2.348 l -4.258,0.004 c -0.326,-0.729 -0.688,-1.438 -1.084,-2.123 l 2.502,-3.443 c -0.455,-0.689 -0.941,-1.359 -1.456,-2.004 l -4.04,1.318 c -0.535,-0.59 -1.098,-1.152 -1.689,-1.688 l 1.318,-4.039 c -0.643,-0.516 -1.312,-1.002 -2.001,-1.459 l -3.444,2.502 c -0.688,-0.395 -1.395,-0.756 -2.123,-1.084 l 0.005,-4.256 c -0.769,-0.289 -1.551,-0.543 -2.349,-0.764 l -2.494,3.443 c -0.773,-0.162 -1.561,-0.285 -2.359,-0.371 l -1.313,-4.041 c -0.41,-0.02 -0.824,-0.029 -1.24,-0.029 -0.416,0 -0.828,0.01 -1.24,0.029 l -1.313,4.041 c -0.799,0.086 -1.586,0.209 -2.359,0.371 l -2.494,-3.443 c -0.797,0.221 -1.58,0.475 -2.348,0.764 l 0.004,4.256 c -0.729,0.328 -1.438,0.689 -2.125,1.084 l -3.442,-2.502 c -0.689,0.457 -1.356,0.943 -2.001,1.459 l 1.318,4.039 c -0.592,0.535 -1.155,1.098 -1.689,1.688 l -4.039,-1.318 c -0.516,0.645 -1.001,1.314 -1.457,2.004 l 2.5,3.441 c -0.395,0.688 -0.757,1.396 -1.084,2.125 l -4.256,-0.004 c -0.288,0.766 -0.543,1.551 -0.763,2.348 l 3.443,2.494 c -0.162,0.773 -0.287,1.561 -0.372,2.359 l -4.042,1.313 c -0.019,0.41 -0.029,0.824 -0.029,1.24 0,0.414 0.011,0.828 0.029,1.24 l 4.042,1.313 c 0.085,0.799 0.21,1.586 0.371,2.359 l -2.905,2.104 1.535,-2.277 c -0.363,-0.582 -0.767,-1.137 -1.207,-1.658 l -3.155,0.904 c -0.686,-0.641 -1.442,-1.203 -2.27,-1.658 l -0.113,-3.271 c -0.628,-0.256 -1.279,-0.469 -1.948,-0.633 l -2.02,2.586 c -0.461,-0.057 -0.928,-0.096 -1.404,-0.096 -0.476,0 -0.943,0.039 -1.405,0.096 l -2.02,-2.586 c -0.669,0.164 -1.319,0.377 -1.947,0.633 l -0.114,3.271 c -0.826,0.457 -1.583,1.018 -2.269,1.658 l -3.155,-0.904 c -0.44,0.521 -0.844,1.076 -1.207,1.658 l 1.835,2.723 c -0.396,0.84 -0.694,1.732 -0.873,2.67 l -2.683,0.977 H 59.18 c -0.428,-2.512 -0.814,-5.082 -1.156,-7.717 h -3.078 v 4.93 l -1.638,0.684 v 6.547 l 1.638,0.682 v 4.93 h 6.248 c -0.582,-2.498 -1.113,-5.074 -1.6,-7.716 H 82.38 l 2.686,0.978 c 0.179,0.937 0.479,1.829 0.873,2.669 l -1.835,2.722 c 0.363,0.583 0.767,1.137 1.207,1.659 l 3.155,-0.904 c 0.685,0.64 1.442,1.202 2.269,1.658 l 0.114,3.272 c 0.628,0.256 1.278,0.467 1.948,0.631 l 2.02,-2.585 c 0.461,0.057 0.928,0.096 1.404,0.096 0.476,0 0.943,-0.039 1.405,-0.096 l 2.019,2.585 c 0.669,-0.164 1.32,-0.377 1.948,-0.631 l 0.113,-3.271 c 0.827,-0.457 1.585,-1.02 2.27,-1.659 l 3.155,0.904 c 0.44,-0.522 0.844,-1.076 1.207,-1.659 l -1.835,-2.722 c 0.396,-0.84 0.695,-1.732 0.875,-2.669 l 3.076,-1.12 c 0.023,-0.34 0.037,-0.682 0.037,-1.026 0,-0.346 -0.014,-0.688 -0.037,-1.025 l -3.076,-1.121 c -0.025,-0.127 -0.058,-0.25 -0.085,-0.377 l 3.991,-0.004 c 0.327,0.729 0.688,1.438 1.084,2.123 l -2.5,3.441 c 0.456,0.69 0.941,1.358 1.457,2.003 l 4.039,-1.317 c 0.533,0.59 1.098,1.154 1.688,1.688 l -1.316,4.039 c 0.645,0.516 1.312,1 2.001,1.459 l 3.442,-2.502 c 0.688,0.396 1.396,0.758 2.125,1.084 l -0.005,4.256 c 0.769,0.289 1.552,0.543 2.349,0.764 l 2.494,-3.443 c 0.773,0.161 1.561,0.285 2.359,0.371 l 1.313,4.043 c 0.412,0.018 0.824,0.027 1.24,0.027 0.416,0 0.83,-0.01 1.24,-0.027 l 1.313,-4.043 c 0.799,-0.086 1.586,-0.21 2.359,-0.371 l 2.494,3.443 c 0.798,-0.221 1.58,-0.475 2.349,-0.764 l -0.005,-4.256 c 0.729,-0.327 1.438,-0.688 2.125,-1.084 l 3.442,2.502 c 0.689,-0.457 1.356,-0.943 2.001,-1.459 l -1.318,-4.039 c 0.592,-0.534 1.155,-1.098 1.689,-1.688 l 4.04,1.317 c 0.515,-0.645 1,-1.313 1.456,-2.003 l -2.502,-3.441 c 0.396,-0.688 0.758,-1.395 1.084,-2.123 l 4.259,0.004 c 0.286,-0.768 0.542,-1.551 0.762,-2.35 l -3.444,-2.492 c 0.162,-0.773 0.287,-1.561 0.372,-2.359 l 4.043,-1.317 z m -64.592,13.842 c -1.55,0 -2.807,-1.256 -2.807,-2.805 0,-1.549 1.257,-2.805 2.807,-2.805 1.549,0 2.806,1.256 2.806,2.805 0,1.549 -1.257,2.805 -2.806,2.805 z m 36.833,-34.336 c 3.202,0 6.221,0.783 8.877,2.166 l -3.213,5.566 c -1.709,-0.842 -3.631,-1.314 -5.664,-1.314 -1.727,0 -3.375,0.342 -4.88,0.961 l -3.228,-5.592 c 2.463,-1.146 5.211,-1.787 8.108,-1.787 z m 3.897,23.153 c -2.153,2.152 -5.644,2.152 -7.796,0 -2.151,-2.154 -2.151,-5.645 0,-7.797 2.152,-2.152 5.643,-2.152 7.796,0 2.152,2.152 2.153,5.644 0,7.797 z m -14.968,-19.653 3.228,5.594 c -2.825,2.184 -4.715,5.52 -4.964,9.305 h -6.428 c 0.27,-6.158 3.433,-11.567 8.164,-14.899 z m 0,31.506 c -4.731,-3.331 -7.895,-8.736 -8.164,-14.896 h 6.428 c 0.249,3.785 2.139,7.121 4.964,9.305 l -3.228,5.591 z m 11.071,3.5 c -2.896,0 -5.645,-0.641 -8.107,-1.787 l 3.228,-5.592 c 1.505,0.62 3.153,0.962 4.88,0.962 2.033,0 3.955,-0.473 5.664,-1.315 l 3.213,5.566 c -2.658,1.383 -5.676,2.166 -8.878,2.166 z m 10.359,-3.021 -3.215,-5.566 c 2.984,-2.004 5.08,-5.225 5.578,-8.953 h 6.455 c -0.539,6.103 -3.922,11.389 -8.818,14.519 z m 2.363,-17.944 c -0.498,-3.727 -2.594,-6.949 -5.578,-8.951 l 3.215,-5.566 c 4.896,3.129 8.279,8.416 8.818,14.518 h -6.455 z"
         id="path17"
         inkscape:connector-curvature="0" /></g><g
       id="logotype_1_"><path
         style="fill:#2f2725"
         d="m 306.624,99.594 0,0 c -1.905,-1.064 -4.078,-1.861 -6.457,-2.381 l -6.502,-1.18 c -0.051,-0.012 -6.341,-0.953 -6.341,-0.953 -1.757,-0.268 -3.327,-0.682 -4.67,-1.234 -1.069,-0.439 -1.919,-1.014 -2.514,-1.709 -0.403,-0.465 -0.597,-1.191 -0.597,-2.213 v -4.811 c 0,-2.27 0.816,-2.809 1.084,-2.986 1.203,-0.795 2.676,-1.182 4.5,-1.182 h 24.459 V 68.532 H 285.76 c -2.383,0 -4.691,0.221 -6.861,0.662 -2.387,0.482 -4.533,1.352 -6.381,2.572 -1.959,1.295 -3.529,3.029 -4.674,5.146 -1.143,2.119 -1.723,4.721 -1.723,7.729 v 5.365 c 0,3.25 0.648,6.029 1.936,8.25 1.254,2.174 2.945,3.949 5.027,5.283 1.914,1.225 4.109,2.16 6.521,2.777 2.156,0.553 4.404,1.004 6.676,1.336 l 6.362,0.877 c 1.815,0.23 3.419,0.586 4.784,1.062 1.086,0.37 1.93,0.856 2.512,1.437 0.274,0.277 0.414,0.798 0.414,1.545 v 6.235 c 0,1.302 -0.233,1.987 -0.434,2.331 -0.283,0.496 -0.638,0.854 -1.105,1.117 -0.649,0.367 -1.439,0.625 -2.35,0.768 -1.154,0.18 -2.363,0.274 -3.588,0.274 h -24.934 v 12.315 h 25.012 c 2.256,0 4.559,-0.22 6.851,-0.654 2.499,-0.477 4.772,-1.336 6.76,-2.555 2.084,-1.281 3.806,-2.971 5.118,-5.024 1.389,-2.181 2.092,-4.882 2.092,-8.033 v -7.097 c 0,-3.098 -0.676,-5.731 -2.018,-7.835 -1.287,-2.019 -3.013,-3.64 -5.133,-4.821 z M 229.765,99.559 C 227.581,95.284 213.838,68.387 213.838,68.387 h -14.021 v 67.227 h 13.375 c 0,0 0,-31.479 0,-40.359 3.518,6.836 11.748,22.84 11.748,22.84 h 9.625 c 0,0 8.232,-16.004 11.748,-22.84 0,8.88 0,40.359 0,40.359 H 259.69 V 68.387 h -14.275 c 0,0 -13.499,26.883 -15.65,31.172 z"
         id="path20"
         inkscape:connector-curvature="0" /><path
         style="fill:#2f2725"
         d="m 388.092,94.979 c -2.373,0 -19.4,0 -21.775,0 0,-2.553 0,-26.592 0,-26.592 h -13.373 v 67.227 h 13.373 c 0,0 0,-25.896 0,-28.467 2.375,0 19.402,0 21.775,0 0,2.57 0,28.467 0,28.467 h 13.373 V 68.387 h -13.373 c 0,0 0,24.039 0,26.592 z"
         id="path22"
         inkscape:connector-curvature="0" /><path
         style="fill:#2f2725"
         d="m 443.836,84.87 h -0.002 c -1.902,-1.115 -4.068,-1.877 -6.439,-2.262 -2.117,-0.342 -4.352,-0.518 -6.637,-0.518 h -19.41 v 12.03 h 19.174 l 3.473,0.219 c 0.762,0.094 1.504,0.313 2.115,0.635 0.477,0.248 0.842,0.58 1.145,1.037 0.133,0.195 0.35,0.682 0.35,1.742 0,0 0,1.063 0,2.063 -1.195,-0.023 -2.598,-0.051 -2.598,-0.051 -2.338,-0.08 -4.729,-0.041 -7.084,0.129 -2.436,0.164 -4.82,0.529 -7.082,1.073 -2.514,0.602 -4.787,1.632 -6.764,3.056 -2.074,1.5 -3.73,3.496 -4.932,5.926 -1.184,2.404 -1.783,5.391 -1.783,8.871 0,2.956 0.471,5.532 1.402,7.659 0.967,2.218 2.369,4.061 4.17,5.474 1.717,1.354 3.76,2.338 6.072,2.934 2.119,0.547 4.459,0.822 6.951,0.822 3.428,0 6.705,-0.531 9.744,-1.581 0.828,-0.29 1.633,-0.643 2.412,-1.048 0.027,0.521 0.129,2.535 0.129,2.535 h 12.395 v -37.97 c 0,-3.041 -0.627,-5.662 -1.859,-7.785 -1.227,-2.106 -2.893,-3.785 -4.942,-4.99 z m -6.232,34.718 c -1.295,1.239 -2.67,2.217 -4.131,2.836 -1.963,0.833 -4.066,1.258 -6.248,1.258 -1.131,0 -2.18,-0.115 -3.111,-0.339 -0.754,-0.179 -1.41,-0.468 -1.947,-0.851 -0.396,-0.285 -0.697,-0.675 -0.939,-1.223 -0.289,-0.657 -0.443,-1.622 -0.443,-2.779 0,-1.609 0.232,-2.916 0.674,-3.781 0.408,-0.8 0.906,-1.358 1.564,-1.75 0.84,-0.5 1.861,-0.853 3.033,-1.037 1.432,-0.234 2.99,-0.353 4.637,-0.353 0,0 4.955,0 6.912,0 -0.001,1.949 -0.001,7.056 -0.001,8.019 z"
         id="path24"
         inkscape:connector-curvature="0" /><path
         style="fill:#2f2725"
         d="m 470.773,96.071 c 0.193,-0.438 0.412,-0.736 0.668,-0.902 0.375,-0.248 0.922,-0.422 1.576,-0.508 l 3.568,-0.209 18.594,0.002 -0.186,-12.316 h -18.412 c -17.045,0 -19.592,10.137 -19.592,16.176 v 21.204 c 0,6.013 2.547,16.097 19.592,16.097 h 18.598 L 494.993,123.3 h -18.412 l -3.621,-0.218 c -0.561,-0.078 -1.096,-0.253 -1.525,-0.529 -0.172,-0.107 -0.43,-0.316 -0.682,-0.869 -0.115,-0.262 -0.393,-1.069 -0.393,-2.869 V 99.018 c 10e-4,-1.75 0.259,-2.596 0.413,-2.947 z"
         id="path26"
         inkscape:connector-curvature="0" /><path
         style="fill:#2f2725"
         d="m 547.623,82.114 h -17.479 c 0,0 -11.256,12.586 -14.875,16.635 0,-5.979 0,-33.197 0,-33.197 h -13.375 v 70.063 h 13.391 c 0,0 -0.082,-17.797 -0.086,-18.834 0.084,-0.092 0.092,-0.102 0.186,-0.209 1.842,2.199 15.953,19.043 15.953,19.043 h 17.477 c 0,0 -23.096,-26.386 -24.664,-28.18 1.609,-1.741 23.472,-25.321 23.472,-25.321 z"
         id="path28"
         inkscape:connector-curvature="0" /><path
         style="fill:#2f2725"
         d="m 585.199,85.323 h -0.004 c -1.85,-1.219 -3.998,-2.086 -6.383,-2.568 -2.168,-0.441 -4.451,-0.664 -6.781,-0.664 h -4.813 c -2.383,0 -4.691,0.223 -6.859,0.664 -2.393,0.482 -4.533,1.355 -6.367,2.584 -1.934,1.307 -3.488,3.049 -4.627,5.195 -1.141,2.137 -1.717,4.746 -1.717,7.744 v 19.963 c 0,3.19 0.393,5.801 1.203,7.986 0.877,2.361 2.24,4.297 4.051,5.756 1.742,1.402 3.883,2.38 6.361,2.917 2.184,0.473 4.691,0.714 7.455,0.714 h 21.775 v -12.315 h -21.775 c -2.617,0 -3.701,-0.428 -4.047,-0.61 -0.568,-0.303 -0.926,-0.657 -1.123,-1.117 -0.338,-0.773 -0.518,-1.801 -0.537,-3.063 0,0.002 -0.01,-1.19 -0.016,-2.224 2.248,0 11.02,0 11.02,0 2.301,0 4.557,-0.191 6.695,-0.567 2.373,-0.415 4.514,-1.194 6.361,-2.315 2.004,-1.219 3.607,-2.889 4.775,-4.979 1.164,-2.086 1.756,-4.701 1.756,-7.776 v -2.364 c 0,-2.998 -0.58,-5.605 -1.721,-7.75 -1.141,-2.157 -2.719,-3.909 -4.682,-5.211 z m -7.416,17.46 -0.002,0.003 c -0.186,0.451 -0.402,0.76 -0.664,0.945 -0.352,0.25 -0.875,0.43 -1.514,0.527 l -3.57,0.236 c 0,0 -8.732,0 -10.965,0 0,-1.798 0,-5.508 0,-5.508 0,-1.598 0.213,-2.471 0.391,-2.924 0.152,-0.393 0.326,-0.652 0.531,-0.787 0.365,-0.252 0.91,-0.436 1.578,-0.537 l 3.57,-0.232 h 4.977 c 1.578,0 2.887,0.086 3.885,0.26 0.553,0.094 0.986,0.268 1.25,0.496 0.217,0.186 0.418,0.559 0.559,1.049 0.244,0.842 0.369,2.094 0.369,3.619 0,1.573 -0.211,2.421 -0.395,2.853 z"
         id="path30"
         inkscape:connector-curvature="0" /><path
         style="fill:#2f2725"
         d="m 614.865,83.487 c -2.143,0.848 -4.018,1.953 -5.572,3.281 -0.191,0.158 -0.373,0.414 -0.561,0.584 -0.125,-1.945 -0.34,-5.262 -0.34,-5.262 h -12.199 v 53.523 h 13.373 c 0,0 0,-31.059 0,-32.043 0.535,-0.65 3.277,-4.006 3.277,-4.006 0.975,-1.229 1.936,-2.227 2.865,-2.98 0.783,-0.643 1.699,-1.133 2.721,-1.467 1.113,-0.365 2.609,-0.572 4.455,-0.611 h 4.664 V 82.09 H 622.8 c -3.097,0.063 -5.759,0.532 -7.935,1.397 z"
         id="path32"
         inkscape:connector-curvature="0" /><path
         style="fill:#2f2725"
         d="m 669.385,109.875 c -1.818,-2.084 -4.102,-3.668 -6.789,-4.719 -2.377,-0.93 -4.973,-1.619 -7.711,-2.054 -2.363,-0.37 -4.588,-0.838 -6.613,-1.379 -1.705,-0.461 -3.119,-1.1 -4.197,-1.899 -0.219,-0.162 -0.73,-0.545 -0.73,-2.07 0,-1.346 0.287,-1.785 0.322,-1.834 0.273,-0.383 0.611,-0.652 1.063,-0.846 0.67,-0.283 1.469,-0.455 2.371,-0.51 -0.088,0.006 3.695,-0.111 3.695,-0.111 h 18.516 V 82.137 h -19.893 c -2.322,0 -4.578,0.209 -6.705,0.617 -2.332,0.447 -4.439,1.236 -6.27,2.348 -2.008,1.219 -3.623,2.932 -4.791,5.09 -1.148,2.125 -1.732,4.725 -1.732,7.73 0,4.117 1.021,7.391 3.027,9.73 1.834,2.129 4.145,3.74 6.865,4.787 2.43,0.938 5.074,1.604 7.859,1.98 2.396,0.327 4.66,0.73 6.738,1.205 1.684,0.385 3.064,0.975 4.105,1.75 0.225,0.165 0.734,0.547 0.734,2.148 0,1.17 -0.266,1.637 -0.385,1.783 -0.408,0.521 -0.875,0.885 -1.475,1.148 -0.777,0.344 -1.68,0.565 -2.688,0.656 0.135,-0.005 -3.719,0.187 -3.719,0.187 H 631.07 v 12.315 h 20.287 c 2.408,0 4.775,-0.16 7.031,-0.471 2.543,-0.349 4.855,-1.103 6.867,-2.239 2.178,-1.229 3.934,-2.965 5.225,-5.158 1.295,-2.206 1.953,-5.027 1.953,-8.39 0.003,-3.972 -1.023,-7.162 -3.048,-9.478 z"
         id="path34"
         inkscape:connector-curvature="0" /></g></g></svg>