<?xml version="1.0" encoding="iso-8859-1"?>
<!-- Generator: Adobe Illustrator 16.0.3, SVG Export Plug-In . SVG Version: 6.00 Build 0)  -->
<!DOCTYPE svg PUBLIC "-//W3C//DTD SVG 1.1//EN" "http://www.w3.org/Graphics/SVG/1.1/DTD/svg11.dtd">
<svg version="1.1" xmlns="http://www.w3.org/2000/svg" xmlns:xlink="http://www.w3.org/1999/xlink" x="0px" y="0px"
	 width="737.009px" height="212.598px" viewBox="0 0 737.009 212.598" style="enable-background:new 0 0 737.009 212.598;"
	 xml:space="preserve">
<g id="others">
</g>
<g id="logo">
	<g>
		<g id="statement">
			<g>
				<path style="fill:#2F2725;" d="M267.32,178.425v-22.068h4.384l5.237,15.623c0.483,1.459,0.835,2.545,1.057,3.266
					c0.25-0.803,0.643-1.979,1.176-3.535l5.297-15.354h3.93v22.068h-2.822v-18.467l-6.42,18.467h-2.633l-6.384-18.789v18.789H267.32
					z"/>
				<path style="fill:#2F2725;" d="M304.403,173.261l2.805,0.369c-0.44,1.633-1.257,2.902-2.453,3.805
					c-1.194,0.902-2.719,1.355-4.571,1.355c-2.337,0-4.189-0.723-5.559-2.162c-1.369-1.441-2.054-3.465-2.054-6.064
					c0-2.693,0.69-4.781,2.078-6.268c1.382-1.484,3.177-2.229,5.384-2.229c2.136,0,3.881,0.729,5.235,2.186
					c1.354,1.455,2.03,3.508,2.03,6.148c0,0.162-0.005,0.408-0.013,0.727h-11.937c0.101,1.756,0.599,3.104,1.491,4.033
					c0.895,0.938,2.008,1.402,3.346,1.402c0.994,0,1.843-0.264,2.546-0.787C303.432,175.251,303.989,174.413,304.403,173.261z
					 M295.509,168.905h8.923c-0.122-1.354-0.462-2.367-1.024-3.041c-0.865-1.049-1.983-1.57-3.356-1.57
					c-1.242,0-2.289,0.418-3.137,1.252C296.067,166.384,295.598,167.501,295.509,168.905z"/>
				<path style="fill:#2F2725;" d="M322.231,172.573l2.662,0.369c-0.293,1.826-1.037,3.258-2.234,4.295
					c-1.198,1.033-2.666,1.553-4.409,1.553c-2.187,0-3.939-0.717-5.269-2.146c-1.327-1.432-1.99-3.486-1.99-6.154
					c0-1.73,0.284-3.24,0.853-4.535c0.573-1.297,1.442-2.264,2.611-2.914c1.168-0.648,2.437-0.973,3.81-0.973
					c1.733,0,3.151,0.441,4.252,1.313c1.103,0.879,1.81,2.121,2.121,3.734l-2.637,0.414c-0.253-1.076-0.696-1.883-1.333-2.424
					c-0.635-0.543-1.405-0.811-2.307-0.811c-1.359,0-2.468,0.488-3.319,1.467c-0.852,0.982-1.28,2.531-1.28,4.652
					c0,2.15,0.415,3.715,1.235,4.691c0.823,0.973,1.893,1.459,3.215,1.459c1.063,0,1.953-0.326,2.662-0.98
					C321.588,174.933,322.04,173.927,322.231,172.573z"/>
				<path style="fill:#2F2725;" d="M329.133,178.425v-22.068h2.705v7.914c1.257-1.467,2.845-2.203,4.759-2.203
					c1.179,0,2.202,0.232,3.069,0.701c0.867,0.467,1.491,1.111,1.864,1.936c0.374,0.822,0.562,2.018,0.562,3.584v10.137h-2.707
					V168.29c0-1.352-0.291-2.338-0.873-2.955c-0.583-0.619-1.409-0.926-2.474-0.926c-0.799,0-1.547,0.205-2.249,0.625
					c-0.704,0.414-1.202,0.979-1.503,1.689c-0.298,0.715-0.448,1.697-0.448,2.951v8.75H329.133z"/>
				<path style="fill:#2F2725;" d="M357.835,176.427c-0.998,0.863-1.962,1.475-2.895,1.83c-0.928,0.357-1.922,0.533-2.99,0.533
					c-1.756,0-3.105-0.43-4.049-1.287s-1.416-1.955-1.416-3.291c0-0.779,0.177-1.494,0.535-2.143
					c0.355-0.648,0.822-1.166,1.399-1.557c0.577-0.393,1.229-0.688,1.951-0.889c0.53-0.143,1.337-0.277,2.411-0.408
					c2.188-0.262,3.799-0.568,4.834-0.932c0.012-0.373,0.014-0.611,0.014-0.711c0-1.107-0.256-1.883-0.766-2.336
					c-0.692-0.615-1.721-0.92-3.089-0.92c-1.274,0-2.218,0.223-2.824,0.67s-1.055,1.24-1.348,2.379l-2.66-0.365
					c0.24-1.139,0.639-2.055,1.192-2.752c0.551-0.703,1.35-1.24,2.396-1.617c1.045-0.377,2.256-0.564,3.633-0.564
					c1.368,0,2.479,0.16,3.331,0.482c0.855,0.322,1.482,0.725,1.887,1.213c0.402,0.49,0.682,1.105,0.844,1.85
					c0.088,0.461,0.133,1.297,0.133,2.496v3.615c0,2.516,0.059,4.111,0.166,4.777c0.115,0.67,0.336,1.309,0.662,1.924h-2.82
					C358.091,177.851,357.915,177.187,357.835,176.427z M357.606,170.419c-0.982,0.396-2.454,0.738-4.422,1.018
					c-1.115,0.16-1.902,0.34-2.365,0.539c-0.461,0.199-0.817,0.492-1.068,0.879c-0.25,0.385-0.376,0.813-0.376,1.281
					c0,0.721,0.274,1.318,0.823,1.801c0.545,0.48,1.346,0.721,2.4,0.721c1.045,0,1.974-0.23,2.789-0.686
					c0.814-0.457,1.411-1.078,1.792-1.867c0.291-0.609,0.438-1.512,0.438-2.697L357.606,170.419z"/>
				<path style="fill:#2F2725;" d="M371.634,175.995l0.369,2.395c-0.764,0.16-1.445,0.24-2.047,0.24
					c-0.982,0-1.742-0.158-2.285-0.467c-0.541-0.313-0.92-0.721-1.143-1.23c-0.221-0.502-0.328-1.566-0.328-3.195v-9.191h-1.996
					v-2.111h1.996v-3.959l2.703-1.627v5.586h2.73v2.111h-2.73v9.348c0,0.77,0.049,1.268,0.145,1.49
					c0.094,0.221,0.25,0.395,0.469,0.523c0.213,0.133,0.523,0.199,0.926,0.199C370.745,176.106,371.14,176.069,371.634,175.995z"/>
				<path style="fill:#2F2725;" d="M376.374,178.425v-15.99h2.432v2.416c0.621-1.135,1.199-1.879,1.727-2.24
					s1.109-0.543,1.742-0.543c0.916,0,1.846,0.293,2.793,0.879l-0.947,2.504c-0.662-0.389-1.32-0.582-1.984-0.582
					c-0.59,0-1.121,0.176-1.592,0.533c-0.473,0.357-0.807,0.852-1.012,1.484c-0.301,0.961-0.453,2.02-0.453,3.16v8.379H376.374z"/>
				<path style="fill:#2F2725;" d="M386.8,170.429c0-2.963,0.822-5.156,2.465-6.584c1.375-1.186,3.047-1.777,5.021-1.777
					c2.193,0,3.988,0.721,5.379,2.162c1.395,1.439,2.09,3.434,2.09,5.973c0,2.059-0.305,3.678-0.922,4.857
					c-0.617,1.182-1.514,2.1-2.693,2.75c-1.176,0.652-2.459,0.98-3.854,0.98c-2.236,0-4.043-0.721-5.42-2.156
					C387.487,175.202,386.8,173.13,386.8,170.429z M389.575,170.431c0,2.051,0.447,3.584,1.342,4.602
					c0.893,1.023,2.014,1.531,3.369,1.531c1.344,0,2.461-0.51,3.355-1.535c0.893-1.027,1.338-2.588,1.338-4.688
					c0-1.979-0.445-3.477-1.348-4.498c-0.896-1.018-2.012-1.525-3.346-1.525c-1.355,0-2.477,0.506-3.369,1.518
					C390.022,166.851,389.575,168.384,389.575,170.431z"/>
				<path style="fill:#2F2725;" d="M405.89,178.425v-15.99h2.434v2.271c1.172-1.758,2.865-2.639,5.076-2.639
					c0.961,0,1.846,0.172,2.648,0.52c0.809,0.348,1.41,0.799,1.811,1.363c0.402,0.563,0.68,1.229,0.842,2.004
					c0.1,0.502,0.152,1.379,0.152,2.635v9.836h-2.707v-9.74c0-1.104-0.105-1.93-0.316-2.479c-0.209-0.545-0.582-0.984-1.119-1.309
					c-0.533-0.326-1.16-0.488-1.883-0.488c-1.15,0-2.141,0.367-2.977,1.098c-0.836,0.732-1.252,2.127-1.252,4.174v8.744H405.89z"/>
				<path style="fill:#2F2725;" d="M423.987,159.452v-3.096h2.707v3.096H423.987z M423.987,178.425v-15.99h2.707v15.99H423.987z"/>
				<path style="fill:#2F2725;" d="M442.606,172.573l2.66,0.369c-0.293,1.826-1.033,3.258-2.232,4.295
					c-1.195,1.033-2.666,1.553-4.41,1.553c-2.182,0-3.938-0.717-5.268-2.146c-1.326-1.432-1.988-3.486-1.988-6.154
					c0-1.73,0.283-3.24,0.857-4.535c0.568-1.297,1.439-2.264,2.605-2.914c1.168-0.648,2.438-0.973,3.809-0.973
					c1.736,0,3.152,0.441,4.256,1.313c1.102,0.879,1.807,2.121,2.121,3.734l-2.639,0.414c-0.252-1.076-0.695-1.883-1.33-2.424
					c-0.639-0.543-1.404-0.811-2.307-0.811c-1.363,0-2.471,0.488-3.322,1.467c-0.852,0.982-1.277,2.531-1.277,4.652
					c0,2.15,0.412,3.715,1.234,4.691c0.82,0.973,1.893,1.459,3.217,1.459c1.061,0,1.949-0.326,2.66-0.98
					C441.966,174.933,442.413,173.927,442.606,172.573z"/>
				<path style="fill:#2F2725;" d="M448.438,173.651l2.684-0.412c0.15,1.072,0.574,1.896,1.264,2.469
					c0.689,0.568,1.658,0.855,2.895,0.855c1.252,0,2.178-0.254,2.781-0.762c0.605-0.508,0.906-1.104,0.906-1.789
					c0-0.609-0.27-1.094-0.809-1.449c-0.375-0.24-1.301-0.545-2.783-0.92c-1.988-0.5-3.369-0.934-4.139-1.303
					c-0.766-0.365-1.348-0.871-1.744-1.518c-0.398-0.648-0.596-1.363-0.596-2.146c0-0.715,0.162-1.373,0.49-1.982
					c0.326-0.604,0.773-1.109,1.334-1.514c0.424-0.309,1.002-0.572,1.729-0.789c0.729-0.219,1.514-0.324,2.35-0.324
					c1.256,0,2.359,0.182,3.309,0.543c0.953,0.361,1.65,0.852,2.105,1.473c0.453,0.615,0.764,1.443,0.932,2.48l-2.66,0.367
					c-0.117-0.83-0.469-1.477-1.049-1.941c-0.574-0.465-1.393-0.695-2.453-0.695c-1.246,0-2.139,0.205-2.67,0.615
					c-0.535,0.412-0.801,0.896-0.801,1.451c0,0.35,0.113,0.666,0.33,0.949c0.227,0.293,0.57,0.531,1.043,0.725
					c0.273,0.1,1.072,0.33,2.404,0.693c1.92,0.512,3.26,0.934,4.018,1.258c0.76,0.328,1.357,0.803,1.789,1.424
					c0.432,0.623,0.648,1.398,0.648,2.322c0,0.9-0.266,1.752-0.793,2.551s-1.289,1.416-2.285,1.852
					c-0.996,0.434-2.121,0.656-3.377,0.656c-2.082,0-3.672-0.434-4.762-1.297C449.435,176.632,448.741,175.349,448.438,173.651z"/>
			</g>
			<path style="fill:#2F2725;" d="M489.179,175.813c-0.893,0.994-1.865,1.734-2.92,2.23c-1.053,0.496-2.189,0.746-3.414,0.746
				c-2.262,0-4.049-0.762-5.375-2.289c-1.072-1.24-1.611-2.631-1.611-4.166c0-1.363,0.441-2.596,1.316-3.691
				c0.877-1.1,2.189-2.063,3.932-2.896c-1.004-1.141-1.68-2.072-2.014-2.781c-0.336-0.711-0.504-1.4-0.504-2.059
				c0-1.326,0.518-2.477,1.563-3.451c1.041-0.979,2.352-1.465,3.932-1.465c1.51,0,2.748,0.459,3.707,1.383
				c0.961,0.926,1.441,2.035,1.441,3.334c0,2.1-1.398,3.891-4.197,5.381l3.984,5.02c0.445-0.883,0.793-1.906,1.039-3.07l2.822,0.604
				c-0.484,1.922-1.135,3.492-1.961,4.717c1.018,1.354,2.166,2.486,3.453,3.404l-1.814,2.164
				C491.466,178.226,490.343,177.187,489.179,175.813z M487.466,173.685l-4.945-6.172c-1.473,0.875-2.465,1.688-2.975,2.434
				c-0.518,0.748-0.773,1.49-0.773,2.223c0,0.895,0.355,1.826,1.068,2.787c0.711,0.969,1.719,1.447,3.025,1.447
				c0.811,0,1.648-0.25,2.52-0.76C486.251,175.14,486.944,174.487,487.466,173.685z M483.646,164.335
				c1.176-0.693,1.941-1.299,2.289-1.822c0.348-0.525,0.521-1.102,0.521-1.734c0-0.754-0.24-1.371-0.719-1.846
				c-0.48-0.48-1.076-0.717-1.797-0.717c-0.738,0-1.354,0.234-1.842,0.707c-0.492,0.475-0.734,1.049-0.734,1.734
				c0,0.344,0.09,0.701,0.268,1.078c0.176,0.377,0.443,0.775,0.795,1.199L483.646,164.335z"/>
			<g>
				<path style="fill:#2F2725;" d="M505.433,171.337l2.752-0.254c0.131,1.104,0.434,2.01,0.908,2.719
					c0.477,0.705,1.213,1.281,2.217,1.717c1.002,0.439,2.127,0.656,3.381,0.656c1.109,0,2.094-0.166,2.945-0.498
					c0.85-0.33,1.482-0.785,1.898-1.361c0.414-0.58,0.625-1.207,0.625-1.889c0-0.688-0.201-1.289-0.6-1.805
					c-0.402-0.516-1.063-0.947-1.984-1.301c-0.59-0.229-1.898-0.588-3.928-1.07c-2.021-0.488-3.441-0.947-4.254-1.379
					c-1.057-0.555-1.844-1.24-2.361-2.061c-0.516-0.82-0.773-1.736-0.773-2.752c0-1.115,0.316-2.16,0.945-3.133
					c0.633-0.967,1.557-1.705,2.77-2.207c1.213-0.504,2.563-0.754,4.049-0.754c1.635,0,3.078,0.262,4.328,0.789
					c1.246,0.525,2.205,1.299,2.881,2.322c0.67,1.021,1.031,2.178,1.084,3.473l-2.799,0.205c-0.152-1.375-0.66-2.416-1.527-3.119
					s-2.15-1.055-3.842-1.055c-1.766,0-3.049,0.322-3.857,0.969c-0.809,0.645-1.211,1.426-1.211,2.336
					c0,0.791,0.285,1.445,0.857,1.953c0.559,0.512,2.027,1.035,4.396,1.57c2.373,0.533,3.998,1.004,4.881,1.404
					c1.285,0.592,2.234,1.34,2.848,2.246c0.609,0.908,0.918,1.951,0.918,3.133c0,1.174-0.334,2.277-1.01,3.314
					c-0.67,1.033-1.635,1.844-2.893,2.418c-1.26,0.576-2.676,0.865-4.25,0.865c-1.99,0-3.662-0.293-5.014-0.873
					c-1.348-0.58-2.406-1.455-3.17-2.623C505.872,174.128,505.472,172.808,505.433,171.337z"/>
				<path style="fill:#2F2725;" d="M526.319,170.429c0-2.963,0.818-5.156,2.463-6.584c1.371-1.186,3.047-1.777,5.02-1.777
					c2.195,0,3.988,0.721,5.385,2.162c1.391,1.439,2.088,3.434,2.088,5.973c0,2.059-0.311,3.678-0.926,4.857
					c-0.617,1.182-1.512,2.1-2.689,2.75c-1.18,0.652-2.463,0.98-3.857,0.98c-2.234,0-4.041-0.721-5.416-2.156
					C527.007,175.202,526.319,173.13,526.319,170.429z M529.095,170.431c0,2.051,0.443,3.584,1.34,4.602
					c0.891,1.023,2.014,1.531,3.367,1.531c1.344,0,2.465-0.51,3.359-1.535c0.891-1.027,1.34-2.588,1.34-4.688
					c0-1.979-0.451-3.477-1.348-4.498c-0.9-1.018-2.016-1.525-3.352-1.525c-1.354,0-2.477,0.506-3.367,1.518
					C529.538,166.851,529.095,168.384,529.095,170.431z"/>
				<path style="fill:#2F2725;" d="M545.835,178.425v-13.879h-2.387v-2.111h2.387v-1.695c0-1.074,0.096-1.869,0.285-2.393
					c0.258-0.701,0.717-1.268,1.371-1.703s1.574-0.652,2.758-0.652c0.762,0,1.605,0.088,2.527,0.268l-0.404,2.357
					c-0.563-0.1-1.092-0.15-1.596-0.15c-0.822,0-1.406,0.176-1.746,0.525c-0.34,0.354-0.514,1.008-0.514,1.969v1.475h3.121v2.111
					h-3.098v13.879H545.835z"/>
				<path style="fill:#2F2725;" d="M561.616,175.995l0.365,2.395c-0.762,0.16-1.443,0.24-2.043,0.24
					c-0.982,0-1.748-0.158-2.285-0.467c-0.543-0.313-0.924-0.721-1.145-1.23c-0.223-0.502-0.33-1.566-0.33-3.195v-9.191h-1.996
					v-2.111h1.996v-3.959l2.709-1.627v5.586h2.729v2.111h-2.729v9.348c0,0.77,0.045,1.268,0.141,1.49
					c0.096,0.221,0.252,0.395,0.467,0.523c0.217,0.133,0.525,0.199,0.926,0.199C560.726,176.106,561.124,176.069,561.616,175.995z"
					/>
				<path style="fill:#2F2725;" d="M569.942,178.425l-4.863-15.99h2.828l2.553,9.223l0.914,3.436
					c0.039-0.168,0.32-1.266,0.844-3.291l2.549-9.367h2.771l2.4,9.273l0.783,3.057l0.918-3.088l2.758-9.242h2.631l-5.016,15.99
					h-2.799l-2.543-9.578l-0.629-2.725l-3.279,12.303H569.942z"/>
				<path style="fill:#2F2725;" d="M600.448,176.427c-1.002,0.863-1.965,1.475-2.895,1.83c-0.928,0.357-1.928,0.533-2.99,0.533
					c-1.758,0-3.107-0.43-4.053-1.287s-1.414-1.955-1.414-3.291c0-0.779,0.176-1.494,0.531-2.143
					c0.359-0.648,0.822-1.166,1.402-1.557c0.578-0.393,1.227-0.688,1.949-0.889c0.535-0.143,1.338-0.277,2.412-0.408
					c2.191-0.262,3.803-0.568,4.836-0.932c0.01-0.373,0.016-0.611,0.016-0.711c0-1.107-0.258-1.883-0.77-2.336
					c-0.693-0.615-1.721-0.92-3.088-0.92c-1.275,0-2.215,0.223-2.824,0.67c-0.605,0.447-1.057,1.24-1.346,2.379l-2.662-0.365
					c0.24-1.139,0.637-2.055,1.189-2.752c0.555-0.703,1.354-1.24,2.396-1.617c1.049-0.377,2.258-0.564,3.637-0.564
					c1.367,0,2.479,0.16,3.332,0.482c0.855,0.322,1.482,0.725,1.885,1.213c0.4,0.49,0.682,1.105,0.844,1.85
					c0.09,0.461,0.137,1.297,0.137,2.496v3.615c0,2.516,0.055,4.111,0.164,4.777c0.115,0.67,0.332,1.309,0.66,1.924h-2.822
					C600.702,177.851,600.526,177.187,600.448,176.427z M600.22,170.419c-0.984,0.396-2.461,0.738-4.426,1.018
					c-1.113,0.16-1.902,0.34-2.363,0.539s-0.818,0.492-1.068,0.879c-0.25,0.385-0.377,0.813-0.377,1.281
					c0,0.721,0.271,1.318,0.82,1.801c0.549,0.48,1.35,0.721,2.402,0.721c1.047,0,1.977-0.23,2.789-0.686
					c0.813-0.457,1.412-1.078,1.793-1.867c0.293-0.609,0.438-1.512,0.438-2.697L600.22,170.419z"/>
				<path style="fill:#2F2725;" d="M607.856,178.425v-15.99h2.43v2.416c0.625-1.135,1.201-1.879,1.729-2.24s1.109-0.543,1.744-0.543
					c0.914,0,1.844,0.293,2.791,0.879l-0.945,2.504c-0.66-0.389-1.324-0.582-1.986-0.582c-0.592,0-1.121,0.176-1.594,0.533
					s-0.807,0.852-1.01,1.484c-0.301,0.961-0.453,2.02-0.453,3.16v8.379H607.856z"/>
				<path style="fill:#2F2725;" d="M629.788,173.261l2.809,0.369c-0.443,1.633-1.258,2.902-2.453,3.805
					c-1.193,0.902-2.719,1.355-4.572,1.355c-2.338,0-4.189-0.723-5.561-2.162c-1.365-1.441-2.051-3.465-2.051-6.064
					c0-2.693,0.693-4.781,2.074-6.268c1.385-1.484,3.182-2.229,5.385-2.229c2.135,0,3.881,0.729,5.236,2.186
					c1.354,1.455,2.031,3.508,2.031,6.148c0,0.162-0.006,0.408-0.018,0.727h-11.936c0.1,1.756,0.602,3.104,1.492,4.033
					c0.895,0.938,2.01,1.402,3.346,1.402c0.996,0,1.842-0.264,2.545-0.787C628.819,175.251,629.376,174.413,629.788,173.261z
					 M620.896,168.905h8.922c-0.121-1.354-0.461-2.367-1.023-3.041c-0.859-1.049-1.98-1.57-3.354-1.57
					c-1.244,0-2.289,0.418-3.139,1.252C621.454,166.384,620.987,167.501,620.896,168.905z"/>
			</g>
		</g>
		<g id="logotype">
			<path style="fill:#2F2725;" d="M322.854,101.486L322.854,101.486c-1.869-1.043-4.006-1.826-6.341-2.338l-6.383-1.156
				c-0.05-0.012-6.225-0.938-6.225-0.938c-1.725-0.262-3.268-0.67-4.583-1.211c-1.049-0.432-1.883-0.996-2.47-1.678
				c-0.393-0.457-0.586-1.169-0.586-2.173V87.27c0-2.228,0.802-2.758,1.065-2.932c1.181-0.781,2.626-1.16,4.419-1.16h24.013v-12.19
				H302.37c-2.339,0-4.607,0.219-6.737,0.651c-2.344,0.475-4.451,1.327-6.265,2.527c-1.92,1.27-3.464,2.974-4.588,5.052
				c-1.123,2.08-1.692,4.635-1.692,7.588v5.269c0,3.189,0.638,5.919,1.901,8.099c1.231,2.137,2.892,3.879,4.936,5.189
				c1.879,1.203,4.033,2.121,6.402,2.727c2.118,0.543,4.324,0.986,6.558,1.311l6.244,0.861c1.783,0.229,3.359,0.576,4.698,1.043
				c1.065,0.363,1.896,0.841,2.466,1.411c0.271,0.271,0.405,0.783,0.405,1.516v6.123c0,1.277-0.229,1.951-0.424,2.289
				c-0.279,0.486-0.625,0.838-1.086,1.096c-0.637,0.361-1.413,0.615-2.307,0.754c-1.133,0.178-2.317,0.27-3.523,0.27H284.88v12.092
				h24.553c2.217,0,4.479-0.217,6.727-0.645c2.454-0.465,4.685-1.309,6.636-2.506c2.046-1.258,3.738-2.916,5.025-4.934
				c1.367-2.141,2.057-4.795,2.057-7.887v-6.969c0-3.042-0.667-5.628-1.98-7.692C326.629,104.24,324.935,102.646,322.854,101.486z
				 M247.391,101.453c-2.144-4.197-15.635-30.605-15.635-30.605h-13.765v66.006h13.132c0,0,0-30.909,0-39.628
				c3.451,6.713,11.532,22.425,11.532,22.425h9.45c0,0,8.081-15.712,11.536-22.425c0,8.719,0,39.628,0,39.628h13.131V70.848h-14.014
				C262.758,70.848,249.506,97.242,247.391,101.453z"/>
			<path style="fill:#2F2725;" d="M402.841,96.955c-2.33,0-19.047,0-21.381,0c0-2.506,0-26.107,0-26.107h-13.131v66.006h13.131
				c0,0,0-25.427,0-27.95c2.334,0,19.051,0,21.381,0c0,2.523,0,27.95,0,27.95h13.129V70.848h-13.129
				C402.841,70.848,402.841,94.449,402.841,96.955z"/>
			<path style="fill:#2F2725;" d="M457.573,87.03h-0.002c-1.867-1.094-3.994-1.842-6.324-2.22c-2.078-0.335-4.271-0.509-6.516-0.509
				h-19.059v11.81h18.826l3.41,0.217c0.748,0.092,1.477,0.305,2.076,0.621c0.467,0.246,0.826,0.57,1.125,1.018
				c0.129,0.193,0.344,0.67,0.344,1.713c0,0,0,1.043,0,2.023c-1.176-0.023-2.551-0.049-2.551-0.049
				c-2.297-0.08-4.645-0.041-6.957,0.125c-2.391,0.164-4.732,0.521-6.951,1.055c-2.469,0.592-4.703,1.604-6.643,3
				c-2.035,1.475-3.662,3.434-4.842,5.82c-1.162,2.36-1.75,5.294-1.75,8.71c0,2.902,0.461,5.432,1.375,7.52
				c0.949,2.178,2.326,3.988,4.096,5.373c1.684,1.33,3.691,2.297,5.961,2.883c2.08,0.535,4.377,0.807,6.824,0.807
				c3.367,0,6.584-0.521,9.568-1.553c0.813-0.285,1.604-0.631,2.369-1.029c0.027,0.514,0.127,2.49,0.127,2.49h12.17v-37.28
				c0-2.986-0.615-5.559-1.826-7.645C461.22,89.862,459.585,88.214,457.573,87.03z M451.454,121.122
				c-1.271,1.215-2.623,2.174-4.057,2.783c-1.928,0.818-3.992,1.234-6.137,1.234c-1.109,0-2.139-0.113-3.053-0.332
				c-0.74-0.178-1.385-0.459-1.912-0.836c-0.391-0.279-0.686-0.662-0.922-1.199c-0.285-0.646-0.436-1.594-0.436-2.73
				c0-1.578,0.227-2.863,0.662-3.713c0.4-0.785,0.889-1.332,1.535-1.719c0.824-0.49,1.826-0.836,2.979-1.018
				c1.406-0.229,2.934-0.346,4.551-0.346c0,0,4.865,0,6.789,0C451.454,115.159,451.454,120.175,451.454,121.122z"/>
			<path style="fill:#2F2725;" d="M484.021,98.027c0.189-0.43,0.406-0.721,0.656-0.885c0.369-0.244,0.904-0.414,1.547-0.498
				l3.504-0.207l18.254,0.004L507.8,84.348h-18.076c-16.736,0-19.236,9.953-19.236,15.882v20.819c0,5.904,2.5,15.805,19.236,15.805
				h18.258l-0.182-12.092h-18.076l-3.555-0.213c-0.551-0.078-1.076-0.248-1.498-0.521c-0.168-0.105-0.422-0.311-0.67-0.854
				c-0.113-0.256-0.385-1.049-0.385-2.816V100.92C483.616,99.205,483.87,98.373,484.021,98.027z"/>
			<path style="fill:#2F2725;" d="M559.472,84.325h-17.16c0,0-11.051,12.355-14.604,16.332c0-5.869,0-32.592,0-32.592h-13.131
				v68.791h13.146c0,0-0.082-17.473-0.084-18.492c0.082-0.088,0.088-0.1,0.182-0.205c1.809,2.16,15.662,18.697,15.662,18.697h17.16
				c0,0-22.676-25.907-24.217-27.669C538.007,107.479,559.472,84.325,559.472,84.325z"/>
			<path style="fill:#2F2725;" d="M596.364,87.476h-0.002c-1.816-1.198-3.926-2.05-6.268-2.524c-2.127-0.432-4.369-0.65-6.658-0.65
				h-4.725c-2.338,0-4.605,0.218-6.734,0.65c-2.35,0.475-4.449,1.333-6.252,2.54c-1.898,1.282-3.424,2.993-4.543,5.1
				c-1.119,2.098-1.684,4.659-1.684,7.604v19.603c0,3.133,0.385,5.695,1.182,7.842c0.859,2.316,2.197,4.219,3.977,5.65
				c1.711,1.377,3.811,2.336,6.246,2.863c2.143,0.465,4.605,0.701,7.318,0.701h21.379v-12.092h-21.379c-2.57,0-3.633-0.42-3.973-0.6
				c-0.561-0.297-0.91-0.645-1.102-1.096c-0.334-0.76-0.51-1.77-0.527-3.008c0,0.002-0.012-1.17-0.018-2.184
				c2.207,0,10.818,0,10.818,0c2.26,0,4.475-0.188,6.574-0.557c2.33-0.41,4.432-1.174,6.246-2.273
				c1.967-1.197,3.541-2.836,4.688-4.89c1.145-2.049,1.725-4.617,1.725-7.635v-2.324c0-2.941-0.57-5.502-1.689-7.609
				C599.843,90.474,598.292,88.754,596.364,87.476z M589.085,104.619l-0.002,0.002c-0.184,0.443-0.396,0.748-0.652,0.93
				c-0.346,0.246-0.859,0.422-1.486,0.516l-3.504,0.232c0,0-8.574,0-10.766,0c0-1.764,0-5.406,0-5.406
				c0-1.57,0.209-2.426,0.381-2.873c0.15-0.385,0.322-0.641,0.523-0.771c0.359-0.248,0.893-0.428,1.551-0.527l3.504-0.23h4.885
				c1.551,0,2.836,0.084,3.816,0.256c0.543,0.092,0.967,0.264,1.225,0.488c0.215,0.182,0.412,0.549,0.549,1.027
				c0.24,0.828,0.365,2.057,0.365,3.559C589.474,103.361,589.265,104.195,589.085,104.619z"/>
			<path style="fill:#2F2725;" d="M625.493,85.672c-2.105,0.833-3.945,1.916-5.471,3.222c-0.188,0.156-0.367,0.407-0.551,0.572
				c-0.123-1.909-0.334-5.165-0.334-5.165h-11.977v52.553h13.131c0,0,0-30.495,0-31.462c0.523-0.639,3.217-3.936,3.217-3.936
				c0.955-1.203,1.9-2.186,2.813-2.926c0.77-0.631,1.67-1.113,2.672-1.439c1.092-0.359,2.563-0.563,4.373-0.602h4.58V84.301h-4.662
				C630.241,84.361,627.628,84.823,625.493,85.672z"/>
			<path style="fill:#2F2725;" d="M679.021,111.582c-1.785-2.045-4.025-3.6-6.666-4.631c-2.332-0.912-4.883-1.592-7.57-2.018
				c-2.32-0.365-4.506-0.822-6.492-1.355c-1.676-0.451-3.063-1.078-4.121-1.863c-0.215-0.162-0.719-0.535-0.719-2.033
				c0-1.32,0.283-1.754,0.316-1.801c0.27-0.379,0.602-0.643,1.045-0.832c0.656-0.275,1.443-0.445,2.328-0.5
				c-0.088,0.004,3.629-0.107,3.629-0.107h18.176V84.348h-19.529c-2.281,0-4.496,0.203-6.584,0.604
				c-2.289,0.441-4.357,1.217-6.154,2.308c-1.971,1.194-3.557,2.877-4.703,4.997c-1.129,2.085-1.701,4.638-1.701,7.587
				c0,4.045,1.002,7.26,2.971,9.557c1.803,2.092,4.07,3.675,6.74,4.702c2.387,0.92,4.984,1.574,7.719,1.943
				c2.352,0.322,4.574,0.717,6.615,1.184c1.652,0.377,3.008,0.957,4.031,1.719c0.219,0.162,0.721,0.535,0.721,2.109
				c0,1.146-0.262,1.605-0.379,1.752c-0.4,0.51-0.859,0.867-1.447,1.125c-0.764,0.338-1.65,0.557-2.639,0.646
				c0.131-0.006-3.652,0.182-3.652,0.182h-19.549v12.092h19.918c2.365,0,4.689-0.158,6.904-0.461
				c2.496-0.344,4.766-1.084,6.74-2.199c2.139-1.207,3.863-2.912,5.131-5.064c1.271-2.166,1.918-4.938,1.918-8.238
				C682.017,116.989,681.009,113.856,679.021,111.582z"/>
		</g>
	</g>
	<g id="symbol_1_">
		<path style="fill:#2F2725;" d="M106.649,143.632c-1.127,0-2.041-0.914-2.041-2.043c0-0.365,0.104-0.705,0.274-1.002
			c-1.408-1.408-3.296-3.297-3.48-3.48c-0.423,0-8.371,0-8.371,0l-12.167-12.164c-0.298,0.17-0.636,0.273-1.003,0.273
			c-0.94,0-1.723-0.637-1.961-1.5h-6.526c1.942,7.508,4.313,14.332,7.105,20.412c1.122,2.441,2.317,4.762,3.572,6.969h5.941v-1.375
			l3.826,0.002v3.826h-3.826v-1.373h-5.322c1.528,2.594,3.149,5.018,4.86,7.264c2.277,0.482,4.564,0.902,6.857,1.271v-4.277
			l3.795-3.795c-0.442-0.779-0.34-1.783,0.324-2.447c0.797-0.797,2.09-0.797,2.887,0c0.797,0.799,0.797,2.09,0,2.887
			c-0.665,0.664-1.669,0.768-2.447,0.324c-1.371,1.371-3.291,3.289-3.479,3.479c0,0.189,0,2.021,0,4.004
			c4.888,0.752,9.806,1.256,14.736,1.502v-15.904c2.727,0.086,5.456,0.117,8.184,0.096v-4.449h-9.781
			C108.371,142.995,107.588,143.632,106.649,143.632z M104.975,158.7c-1.126,0-2.04-0.914-2.04-2.041c0-0.939,0.637-1.723,1.5-1.959
			c0-1.809,0-4.254,0-4.514c-0.294-0.295-6.086-6.088-6.38-6.381c-0.214,0-1.583,0-2.839,0c-0.238,0.861-1.021,1.5-1.959,1.5
			c-0.938,0-1.721-0.639-1.959-1.5h-4.452c-0.239,0.863-1.021,1.5-1.959,1.5c-1.127,0-2.042-0.914-2.042-2.041
			s0.914-2.041,2.042-2.041c0.938,0,1.721,0.637,1.959,1.502h4.452c0.046-0.166,0.11-0.32,0.192-0.465L80.866,131.64
			c-0.298,0.17-0.637,0.273-1.003,0.273c-1.127,0-2.042-0.912-2.042-2.041c0-1.127,0.914-2.041,2.042-2.041
			c1.126,0,2.04,0.914,2.04,2.041c0,0.367-0.104,0.707-0.273,1.004c2.594,2.594,8.149,8.148,10.622,10.621
			c0.298-0.17,0.638-0.273,1.004-0.273c0.939,0,1.722,0.637,1.959,1.502c1.458,0,3.287,0,3.287,0l7.013,7.014v4.961
			c0.863,0.236,1.501,1.02,1.501,1.959C107.016,157.786,106.102,158.7,104.975,158.7z M111.672,138.608
			c-1.127,0-2.04-0.914-2.04-2.041c0-0.939,0.637-1.723,1.5-1.959v-4.029c-1.94,0.625-4.008,0.967-6.156,0.967
			c-9.697,0-17.791-6.869-19.676-16.008H69.482c0.498,2.432,1.043,4.791,1.623,7.098h6.797c0.238-0.863,1.021-1.502,1.961-1.502
			c1.126,0,2.04,0.914,2.04,2.041c0,0.367-0.104,0.707-0.274,1.004c3.341,3.34,11.604,11.602,11.851,11.848c0.424,0,8.372,0,8.372,0
			s2.305,2.305,3.796,3.797c0.297-0.17,0.636-0.273,1.002-0.273c0.938,0,1.721,0.637,1.959,1.5c2.29,0,6.414,0,9.781,0v-3.943
			h-4.759C113.394,137.97,112.611,138.608,111.672,138.608z M112.212,130.202c0,0.803,0,2.924,0,4.406
			c0.69,0.189,1.229,0.729,1.419,1.418c1.195,0,2.966,0,4.759,0v-9.617C116.594,128.022,114.504,129.315,112.212,130.202z"/>
		<path style="fill:#2F2725;" d="M118.369,154.747v15.979c-7.313-0.051-14.627-0.66-21.876-1.826
			c11.075,9.25,20.753,9.525,21.851,9.525c1.133,0,11.411-0.295,22.932-10.453c4.834-4.262,9.157-9.65,12.909-16.082
			C142.333,153.862,130.352,154.813,118.369,154.747z"/>
		<path style="fill:#2F2725;" d="M67.996,107.371H85.3c1.887-9.139,9.979-16.009,19.676-16.009c1.817,0,3.578,0.243,5.252,0.695
			v-44.52L64.794,64.574c0,0,0.762,23.981,2.086,34.846C67.21,102.131,67.583,104.781,67.996,107.371z M101.628,57.91
			c1.832,0,3.316,1.484,3.316,3.316c0,0.732-0.24,1.406-0.641,1.955l-4.629-4.63C100.223,58.15,100.896,57.91,101.628,57.91z
			 M98.953,59.273l4.629,4.629c-0.549,0.401-1.223,0.641-1.954,0.641c-1.832,0-3.318-1.485-3.318-3.316
			C98.31,60.495,98.55,59.821,98.953,59.273z M79.831,98.061c0,1.83-1.485,3.314-3.316,3.314c-0.731,0-1.406-0.238-1.955-0.641
			l4.63-4.629C79.591,96.654,79.831,97.328,79.831,98.061z M76.515,94.744c0.731,0,1.405,0.24,1.954,0.641l-4.629,4.629
			c-0.402-0.547-0.641-1.223-0.641-1.953C73.198,96.229,74.683,94.744,76.515,94.744z"/>
		<path style="fill:#2F2725;" d="M126.556,125.905v20.453c10.876-0.504,21.727-1.852,32.455-4.037
			c2.283-5.244,4.268-11.006,5.948-17.26c-5.546,4.076-12.393,6.484-19.802,6.484C138.273,131.546,131.876,129.468,126.556,125.905z
			 M155.728,138.278c-8.107,1.555-16.344,2.631-24.58,3.207c0-2.908,0-4.277,0-8.014c4.428,1.754,9.167,2.666,14.01,2.666
			c4.187,0,8.273-0.676,12.149-1.979C156.797,135.567,156.271,136.942,155.728,138.278z"/>
		<path style="fill:#2F2725;" d="M145.157,64.574c10.637,0,20.114,4.961,26.248,12.694c0.348-7.051,0.54-12.694,0.54-12.694
			l-53.552-20.081v33.444C124.503,69.822,134.216,64.574,145.157,64.574z M122.984,51.119c4.867,1.826,12.045,4.518,23.754,8.908
			c-0.526-0.022-1.051-0.044-1.581-0.044c-6.082,0-11.897,1.392-17.281,4.139c-1.704,0.87-3.335,1.882-4.893,3.002
			C122.984,60.121,122.984,56.205,122.984,51.119z"/>
		<path style="fill:#2F2725;" d="M175.439,99.412c0.02-0.449,0.032-0.9,0.032-1.352c0-0.455-0.012-0.906-0.032-1.354l-4.411-1.434
			c-0.094-0.869-0.229-1.729-0.406-2.572l3.757-2.721c-0.24-0.871-0.518-1.726-0.832-2.563l-4.645,0.005
			c-0.356-0.794-0.751-1.567-1.182-2.316l2.729-3.757c-0.497-0.752-1.027-1.481-1.589-2.184l-4.407,1.438
			c-0.584-0.644-1.198-1.259-1.842-1.842l1.438-4.407c-0.702-0.562-1.431-1.092-2.184-1.59l-3.757,2.729
			c-0.75-0.432-1.522-0.826-2.317-1.183l0.006-4.644c-0.838-0.314-1.692-0.592-2.563-0.832l-2.721,3.757
			c-0.844-0.177-1.702-0.312-2.574-0.405l-1.432-4.41c-0.447-0.02-0.898-0.032-1.352-0.032s-0.904,0.012-1.353,0.032l-1.433,4.41
			c-0.871,0.093-1.729,0.229-2.573,0.405l-2.72-3.757c-0.87,0.24-1.725,0.518-2.562,0.832l0.004,4.644
			c-0.794,0.356-1.568,0.751-2.318,1.183l-3.756-2.729c-0.752,0.498-1.48,1.029-2.183,1.59l1.438,4.406
			c-0.645,0.583-1.26,1.198-1.843,1.842l-4.406-1.438c-0.562,0.703-1.091,1.432-1.589,2.184l2.728,3.756
			c-0.431,0.75-0.826,1.523-1.182,2.317l-4.643-0.005c-0.314,0.836-0.593,1.692-0.832,2.563l3.756,2.72
			c-0.177,0.844-0.313,1.704-0.405,2.575l-4.41,1.432c-0.02,0.447-0.031,0.898-0.031,1.354c0,0.451,0.012,0.902,0.031,1.352
			l4.41,1.432c0.092,0.871,0.229,1.73,0.404,2.574l-3.169,2.295l1.675-2.484c-0.396-0.635-0.837-1.24-1.317-1.809l-3.442,0.986
			c-0.748-0.699-1.574-1.313-2.476-1.811l-0.123-3.568c-0.686-0.277-1.396-0.51-2.126-0.689l-2.203,2.82
			c-0.502-0.061-1.011-0.104-1.531-0.104c-0.521,0-1.029,0.043-1.533,0.104l-2.203-2.82c-0.73,0.18-1.439,0.412-2.125,0.689
			l-0.124,3.568c-0.901,0.498-1.728,1.111-2.475,1.811l-3.442-0.986c-0.48,0.568-0.921,1.174-1.317,1.809l2.001,2.969
			c-0.431,0.918-0.757,1.893-0.953,2.914l-2.926,1.066H64.568c-0.467-2.74-0.889-5.545-1.262-8.42h-3.358v5.379l-1.786,0.744v7.146
			l1.786,0.744v5.377h6.817c-0.635-2.725-1.215-5.535-1.745-8.418h24.857l2.93,1.068c0.195,1.021,0.522,1.994,0.953,2.912
			l-2.001,2.969c0.396,0.635,0.836,1.24,1.317,1.809l3.442-0.986c0.747,0.699,1.574,1.313,2.475,1.811l0.124,3.568
			c0.686,0.279,1.395,0.51,2.126,0.689l2.203-2.82c0.502,0.063,1.011,0.104,1.532,0.104c0.52,0,1.029-0.041,1.533-0.104l2.202,2.82
			c0.73-0.18,1.44-0.412,2.126-0.689l0.123-3.568c0.902-0.498,1.729-1.111,2.476-1.811l3.442,0.986
			c0.48-0.568,0.921-1.174,1.317-1.809l-2.002-2.969c0.432-0.918,0.758-1.891,0.954-2.912l3.356-1.225
			c0.025-0.369,0.04-0.743,0.04-1.12c0-0.375-0.014-0.748-0.04-1.119l-3.356-1.223c-0.027-0.139-0.062-0.273-0.093-0.41l4.354-0.006
			c0.357,0.795,0.751,1.568,1.184,2.318l-2.728,3.757c0.498,0.752,1.028,1.48,1.589,2.184l4.406-1.438
			c0.582,0.645,1.197,1.26,1.842,1.842l-1.437,4.406c0.703,0.561,1.431,1.092,2.183,1.59l3.756-2.729
			c0.75,0.432,1.523,0.826,2.318,1.184l-0.006,4.643c0.838,0.314,1.693,0.592,2.563,0.832l2.72-3.756
			c0.844,0.176,1.703,0.313,2.573,0.404l1.433,4.41c0.449,0.02,0.899,0.031,1.353,0.031s0.905-0.012,1.352-0.031l1.432-4.41
			c0.872-0.092,1.731-0.229,2.574-0.404l2.721,3.756c0.871-0.24,1.725-0.518,2.563-0.832l-0.006-4.643
			c0.794-0.357,1.568-0.752,2.318-1.184l3.756,2.729c0.752-0.498,1.48-1.029,2.184-1.59l-1.438-4.406
			c0.645-0.584,1.26-1.197,1.842-1.842l4.407,1.438c0.562-0.703,1.091-1.432,1.589-2.184l-2.729-3.757
			c0.431-0.75,0.826-1.523,1.182-2.318l4.646,0.006c0.313-0.84,0.591-1.693,0.831-2.564l-3.757-2.719
			c0.177-0.844,0.313-1.703,0.406-2.574L175.439,99.412z M104.976,114.515c-1.691,0-3.063-1.369-3.063-3.062
			c0-1.691,1.371-3.061,3.063-3.061c1.689,0,3.061,1.369,3.061,3.061C108.037,113.146,106.666,114.515,104.976,114.515z
			 M145.157,77.055c3.493,0,6.786,0.854,9.684,2.363l-3.506,6.074c-1.863-0.919-3.961-1.435-6.178-1.435
			c-1.884,0-3.682,0.373-5.324,1.048l-3.521-6.1C139,77.754,141.997,77.055,145.157,77.055z M149.409,102.313
			c-2.35,2.348-6.156,2.348-8.504,0c-2.347-2.35-2.347-6.156,0-8.506c2.349-2.348,6.155-2.348,8.504,0
			C151.756,96.156,151.758,99.965,149.409,102.313z M133.08,80.874l3.521,6.101c-3.082,2.383-5.143,6.022-5.415,10.15h-7.011
			C124.469,90.407,127.919,84.508,133.08,80.874z M133.08,115.245c-5.161-3.634-8.611-9.534-8.905-16.253h7.011
			c0.272,4.129,2.333,7.768,5.415,10.152L133.08,115.245z M145.157,119.065c-3.161,0-6.157-0.701-8.845-1.951l3.521-6.101
			c1.642,0.676,3.439,1.05,5.324,1.05c2.217,0,4.315-0.517,6.178-1.437l3.506,6.075C151.943,118.21,148.65,119.065,145.157,119.065z
			 M156.458,115.769l-3.506-6.075c3.255-2.186,5.542-5.701,6.084-9.768h7.042C165.49,106.584,161.799,112.353,156.458,115.769z
			 M159.036,96.191c-0.542-4.066-2.829-7.581-6.084-9.766l3.506-6.073c5.341,3.415,9.033,9.182,9.62,15.839H159.036z"/>
	</g>
</g>
</svg>
