<?xml version="1.0" encoding="UTF-8" standalone="no"?>
<!-- Created with Inkscape (http://www.inkscape.org/) -->
<svg id="svg2" xmlns:rdf="http://www.w3.org/1999/02/22-rdf-syntax-ns#" xmlns="http://www.w3.org/2000/svg" viewBox="0 0 143.07 60.698" version="1.1" xmlns:cc="http://creativecommons.org/ns#" xmlns:dc="http://purl.org/dc/elements/1.1/">
 <metadata id="metadata7">
  <rdf:RDF>
   <cc:Work rdf:about="">
    <dc:format>image/svg+xml</dc:format>
    <dc:type rdf:resource="http://purl.org/dc/dcmitype/StillImage"/>
    <dc:title/>
   </cc:Work>
  </rdf:RDF>
 </metadata>
 <g id="layer1" transform="translate(-143.72092,-423.18871)">
  <g id="g3916" transform="matrix(0.71298172,0,0,0.71298172,42.113138,122.32481)" stroke="#000" stroke-dasharray="none" stroke-miterlimit="4" fill="none">
   <g id="flowRoot2985" stroke-width="1.10000002" style="letter-spacing:0px;word-spacing:0px;" font-weight="normal" transform="translate(72.84375,-9.1261384)" font-stretch="normal" line-height="125%" font-size="48px" font-variant="normal" font-family="Infinity" font-style="normal">
    <path id="path3864" d="m136.3,511.49c-0.2969,0-0.44533-0.14843-0.44532-0.44531v-15.914h-15.445v15.914c0,0.29688-0.15625,0.44531-0.46875,0.44531-0.29687,0-0.44531-0.14843-0.44531-0.44531v-32.719c0-0.29684,0.14844-0.44528,0.44531-0.44531,0.3125,0.00003,0.46875,0.14847,0.46875,0.44531v15.914h15.445v-15.914c-0.00001-0.29684,0.14842-0.44528,0.44532-0.44531,0.29685,0.00003,0.44529,0.14847,0.44531,0.44531v32.719c-0.00002,0.29688-0.14846,0.44531-0.44531,0.44531z"/>
    <path id="path3866" d="m149.59,510.57c-3.1875,0-5.4219-1.2422-6.7031-3.7266-0.67187-1.2969-1.0078-2.625-1.0078-3.9844s0.32812-2.6875,0.98438-3.9844c1.2969-2.4844,3.539-3.7266,6.7266-3.7266,3.1875,0.00001,5.4297,1.2422,6.7266,3.7266,0.65623,1.2969,0.98436,2.625,0.98438,3.9844-0.00002,1.3594-0.32815,2.6875-0.98438,3.9844-1.2813,2.4844-3.5234,3.7266-6.7266,3.7266zm0-24.516c-3.5625,0.00002-6.0625,1.4297-7.5,4.2891-0.75,1.4531-1.125,2.8984-1.125,4.3359,0,0.31251,0.14844,0.46876,0.44531,0.46875,0.3125,0.00001,0.46875-0.15624,0.46875-0.46875,0-1.3594,0.32812-2.6875,0.98438-3.9844,1.2969-2.4844,3.539-3.7265,6.7266-3.7266,3.1875,0.00002,5.4297,1.2422,6.7266,3.7266,0.65623,1.2969,0.98436,2.625,0.98438,3.9844v4.2656c-1.3906-3.1406-3.961-4.7109-7.7109-4.7109-3.5625,0.00002-6.0625,1.4219-7.5,4.2656-0.75,1.4688-1.125,2.9219-1.125,4.3594s0.375,2.8828,1.125,4.3359c1.4375,2.8594,3.9375,4.2891,7.5,4.2891,3.75,0,6.3203-1.5781,7.7109-4.7344v4.2891c-0.00002,0.29688,0.15623,0.44531,0.46875,0.44531,0.29685,0,0.44529-0.14843,0.44531-0.44531v-16.359c-0.00002-1.4375-0.36721-2.8828-1.1016-4.3359-1.4531-2.8594-3.961-4.289-7.5234-4.2891z"/>
    <path id="path3868" d="m171.06,511.49c-3.5625,0-6.0625-1.4297-7.5-4.2891-0.75-1.4531-1.125-2.8984-1.125-4.3359v-8.1797c0-1.4219,0.375-2.8672,1.125-4.3359,1.4375-2.8594,3.9375-4.289,7.5-4.2891,3.5625,0.00002,6.0625,1.4297,7.5,4.2891,0.74998,1.4688,1.125,2.9141,1.125,4.3359-0.00002,0.31251-0.14846,0.46876-0.44531,0.46875-0.31252,0.00001-0.46877-0.15624-0.46875-0.46875-0.00002-1.3594-0.33596-2.6797-1.0078-3.9609-1.2813-2.5-3.5156-3.75-6.7031-3.75-3.1875,0.00002-5.4297,1.25-6.7266,3.75-0.65626,1.2813-0.98438,2.6016-0.98438,3.9609v8.1797c0,1.3594,0.33594,2.6875,1.0078,3.9844,1.2812,2.4844,3.5156,3.7266,6.7031,3.7266s5.4297-1.2422,6.7266-3.7266c0.65623-1.2969,0.98436-2.625,0.98438-3.9844-0.00002-0.29686,0.15623-0.4453,0.46875-0.44531,0.29685,0.00001,0.44529,0.14845,0.44531,0.44531-0.00002,1.4375-0.37502,2.8828-1.125,4.3359-1.4375,2.8594-3.9375,4.2891-7.5,4.2891z"/>
    <path id="path3870" d="m201.11,510.83c0.14061,0.26563,0.0703,0.46875-0.21093,0.60938-0.0625,0.0312-0.12502,0.0469-0.1875,0.0469-0.18752,0-0.32815-0.0859-0.42188-0.25781l-7.875-15.773-7.5938,7.5938v7.9922c0,0.29688-0.15625,0.44531-0.46875,0.44531-0.29687,0-0.44531-0.14843-0.44531-0.44531v-32.695c0-0.29684,0.14844-0.44528,0.44531-0.44531,0.3125,0.00003,0.46875,0.14847,0.46875,0.44531v23.414l7.4062-7.4062,8.1562-8.1562c0.21873-0.21872,0.42967-0.21872,0.63281,0,0.21874,0.21878,0.21874,0.43753,0,0.65625l-7.9219,7.9219z"/>
    <path id="path3872" d="m221.69,494.24c-0.12502-1.625-0.59377-3.0468-1.4062-4.2656-1.3438-2-3.4375-3-6.2812-3-2.8438,0.00002-4.9375,1-6.2812,3-0.8125,1.2188-1.2812,2.6406-1.4062,4.2656zm-7.69,17.25c-3.5625,0-6.0625-1.4297-7.5-4.2891-0.75-1.4531-1.125-2.8984-1.125-4.3359v-8.1797c0.0156-1.5156,0.40625-2.9922,1.1719-4.4297,1.4531-2.7968,3.9375-4.1953,7.4531-4.1953,3.5625,0.00002,6.0625,1.4297,7.5,4.2891,0.74998,1.4688,1.125,2.9141,1.125,4.3359-0.00002,0.31251-0.14846,0.46876-0.44531,0.46875h-15.891v7.7109c0,1.3594,0.33594,2.6875,1.0078,3.9844,1.2812,2.4844,3.5156,3.7266,6.7031,3.7266s5.4297-1.2422,6.7266-3.7266c0.65623-1.2969,0.98436-2.625,0.98438-3.9844-0.00002-0.29686,0.15623-0.4453,0.46875-0.44531,0.29685,0.00001,0.44529,0.14845,0.44531,0.44531-0.00002,1.4375-0.37502,2.8828-1.125,4.3359-1.4375,2.8594-3.9375,4.2891-7.5,4.2891z"/>
    <path id="path3874" d="m244.09,494.68c-0.00002,0.31251-0.14846,0.46876-0.44531,0.46875-0.31252,0.00001-0.46877-0.15624-0.46875-0.46875-0.00002-1.3594-0.32815-2.6797-0.98438-3.9609-1.2969-2.5-3.5391-3.75-6.7266-3.75-3.1875,0.00002-5.4297,1.25-6.7266,3.75-0.65626,1.2813-0.98438,2.6016-0.98438,3.9609v16.359c0,0.29688-0.15625,0.44531-0.46875,0.44531-0.29687,0-0.44531-0.14843-0.44531-0.44531v-24.539c0-0.29685,0.14844-0.44529,0.44531-0.44531,0.3125,0.00002,0.46875,0.14846,0.46875,0.44531v4.2891c1.3906-3.1562,3.9609-4.7344,7.7109-4.7344,3.5625,0.00002,6.0703,1.4297,7.5234,4.2891,0.73435,1.4531,1.1015,2.8984,1.1016,4.3359z"/>
    <path id="path3876" d="m256.94,511.49c-3.5625,0-6.0625-1.4297-7.5-4.2891-0.75-1.4531-1.125-2.8984-1.125-4.3359,0-0.29686,0.14844-0.45311,0.44531-0.46875,0.3125,0.00001,0.46875,0.15626,0.46875,0.46875,0,1.3594,0.33594,2.6875,1.0078,3.9844,1.2812,2.4844,3.5156,3.7266,6.7031,3.7266,2.9375,0,5.0781-1.0625,6.4219-3.1875,0.76561-1.25,1.1953-2.664,1.2891-4.2422l-16.078-8.0625c-0.17187-0.0781-0.25781-0.21092-0.25781-0.39843,0-1.4375,0.375-2.8828,1.125-4.3359,1.4375-2.8594,3.9375-4.289,7.5-4.2891,3.5625,0.00002,6.0703,1.4297,7.5234,4.2891,0.73435,1.4531,1.1015,2.8984,1.1016,4.3359-0.00002,0.29689-0.14846,0.44533-0.44531,0.44531-0.2969,0.00002-0.44533-0.14842-0.44532-0.44531-0.0156-1.3594-0.35158-2.6875-1.0078-3.9844-1.2969-2.4844-3.5391-3.7265-6.7266-3.7266-2.9375,0.00002-5.0703,1.0625-6.3984,3.1875-0.78125,1.25-1.2188,2.6641-1.3125,4.2422l16.102,8.0625c0.15624,0.0781,0.23436,0.21094,0.23438,0.39843-0.00002,1.4375-0.36721,2.8828-1.1016,4.3359-1.4531,2.8594-3.961,4.2891-7.5234,4.2891z"/>
   </g>
   <g id="g3912" stroke-width="2">
    <path id="rect3064" d="m147.73,427.19,38.064,0,0,35.156-38.064,0z"/>
    <path id="path3840" stroke-linejoin="miter" d="m147.74,427.59,15.221,34.368,22.459-34.69" stroke-linecap="butt"/>
   </g>
   <g id="text3848" style="letter-spacing:0px;word-spacing:0px;" font-family="Infinity" font-weight="normal" font-size="48px" font-style="normal" font-stretch="normal" line-height="125%" font-variant="normal" stroke-width="1.10000002">
    <path id="path3880" d="m192.79,462.36c-0.29687,0-0.44531-0.14844-0.44531-0.44531,0-0.3125,0.14844-0.46875,0.44531-0.46875h8.1797c1.3594,0,2.6875-0.33594,3.9844-1.0078,2.5-1.2812,3.75-3.5156,3.75-6.7031-0.00001-3.1875-1.25-5.4297-3.75-6.7266-1.2969-0.65623-2.625-0.99217-3.9844-1.0078-1.4375,0.00001-2.8828-0.36717-4.3359-1.1016-2.8594-1.4531-4.2891-3.9609-4.2891-7.5234,0-3.5468,1.4297-6.0468,4.2891-7.5,1.4531-0.74997,2.8984-1.125,4.3359-1.125h8.1797c0.29685,0.00003,0.44529,0.15628,0.44531,0.46875-0.00002,0.2969-0.14846,0.44534-0.44531,0.44531h-8.1797c-1.3594,0.00003-2.6875,0.33597-3.9844,1.0078-2.4844,1.2813-3.7266,3.5157-3.7266,6.7031,0,3.1875,1.2422,5.4297,3.7266,6.7266,1.2969,0.65627,2.625,0.9922,3.9844,1.0078,1.4375,0.00002,2.8906,0.36721,4.3594,1.1016,2.8437,1.4531,4.2656,3.961,4.2656,7.5234-0.00002,3.5625-1.4219,6.0625-4.2656,7.5-1.4688,0.75-2.9219,1.125-4.3594,1.125z"/>
    <path id="path3882" d="m230.52,462.36c-0.2969,0-0.44533-0.14844-0.44532-0.44531v-4.2656c-1.4063,3.1406-3.9844,4.7109-7.7344,4.7109-3.5625,0-6.0625-1.4297-7.5-4.2891-0.75-1.4531-1.125-2.8984-1.125-4.3359v-16.359c0-0.29685,0.14844-0.44529,0.44531-0.44532,0.3125,0.00003,0.46875,0.14847,0.46875,0.44532v16.359c0,1.3594,0.33594,2.6875,1.0078,3.9844,1.2812,2.4844,3.5156,3.7266,6.7031,3.7266,3.2031,0,5.4453-1.2422,6.7266-3.7266,0.67186-1.2969,1.0078-2.625,1.0078-3.9844v-16.359c-0.00001-0.29685,0.14842-0.44529,0.44532-0.44532,0.29685,0.00003,0.44529,0.14847,0.44531,0.44532v24.539c-0.00002,0.29687-0.14846,0.44531-0.44531,0.44531z"/>
    <path id="path3884" d="m252.44,445.56c-0.00002,0.31252-0.14846,0.46877-0.44531,0.46875-0.31252,0.00002-0.46877-0.15623-0.46875-0.46875-0.00002-1.3594-0.32815-2.6797-0.98438-3.9609-1.2969-2.5-3.5391-3.75-6.7266-3.75-3.1875,0.00002-5.4297,1.25-6.7266,3.75-0.65626,1.2813-0.98438,2.6016-0.98438,3.9609v16.359c0,0.29687-0.15625,0.44531-0.46875,0.44531-0.29687,0-0.44531-0.14844-0.44531-0.44531v-24.539c0-0.29685,0.14844-0.44529,0.44531-0.44532,0.3125,0.00003,0.46875,0.14847,0.46875,0.44532v4.2891c1.3906-3.1562,3.9609-4.7344,7.7109-4.7344,3.5625,0.00003,6.0703,1.4297,7.5234,4.2891,0.73435,1.4531,1.1015,2.8984,1.1016,4.3359z"/>
    <path id="path3886" d="m265.49,462.36c-0.21876,0-0.35939-0.10156-0.42188-0.30469l-8.1797-24.516c-0.0937-0.28123,0-0.46873,0.28125-0.5625,0.29688-0.10935,0.49219-0.0156,0.58594,0.28125l7.7344,23.203,7.7344-23.203c0.0937-0.29685,0.28905-0.3906,0.58594-0.28125,0.28123,0.0938,0.37498,0.28127,0.28125,0.5625l-8.1797,24.516c-0.0625,0.20313-0.20313,0.30469-0.42187,0.30469z"/>
    <path id="path3888" d="m294.62,445.11c-0.12502-1.625-0.59377-3.0468-1.4062-4.2656-1.3438-2-3.4375-3-6.2812-3-2.8438,0.00002-4.9375,1-6.2812,3-0.8125,1.2188-1.2812,2.6406-1.4062,4.2656zm-7.6875,17.25c-3.5625,0-6.0625-1.4297-7.5-4.2891-0.75-1.4531-1.125-2.8984-1.125-4.3359v-8.1797c0.0156-1.5156,0.40625-2.9922,1.1719-4.4297,1.4531-2.7968,3.9375-4.1953,7.4531-4.1953,3.5625,0.00003,6.0625,1.4297,7.5,4.2891,0.74998,1.4688,1.125,2.9141,1.125,4.3359-0.00002,0.31252-0.14846,0.46877-0.44531,0.46875h-15.891v7.7109c0,1.3594,0.33594,2.6875,1.0078,3.9844,1.2812,2.4844,3.5156,3.7266,6.7031,3.7266s5.4297-1.2422,6.7266-3.7266c0.65623-1.2969,0.98436-2.625,0.98438-3.9844-0.00002-0.29686,0.15623-0.4453,0.46875-0.44531,0.29685,0.00001,0.44529,0.14845,0.44531,0.44531-0.00002,1.4375-0.37502,2.8828-1.125,4.3359-1.4375,2.8594-3.9375,4.2891-7.5,4.2891z"/>
    <path id="path3890" d="m308.8,453.97-8.1562,16.289c-0.0781,0.17187-0.21094,0.2578-0.39844,0.25781-0.0781-0.00001-0.14844-0.0156-0.21094-0.0469-0.26562-0.14064-0.32812-0.34376-0.1875-0.60938l8.0625-16.125-8.0625-16.125c-0.14062-0.28122-0.0781-0.48435,0.1875-0.60937,0.28125-0.1406,0.48437-0.0781,0.60938,0.1875l7.7812,15.516,7.7578-15.516c0.12498-0.2656,0.32811-0.3281,0.60937-0.1875,0.26561,0.12502,0.32811,0.32815,0.1875,0.60937z"/>
   </g>
  </g>
 </g>
</svg>
