<?xml version="1.0" encoding="UTF-8" standalone="no"?>
<!-- Created with Inkscape (http://www.inkscape.org/) -->
<svg id="svg5748" xmlns:rdf="http://www.w3.org/1999/02/22-rdf-syntax-ns#" xmlns="http://www.w3.org/2000/svg" viewBox="0 0 213 82.7" version="1.1" xmlns:cc="http://creativecommons.org/ns#" xmlns:dc="http://purl.org/dc/elements/1.1/">
 <defs id="defs5750">
  <filter id="filter6635" color-interpolation-filters="sRGB">
   <feFlood id="feFlood6637" result="flood" flood-color="rgb(0,0,0)" flood-opacity="0.5"/>
   <feComposite id="feComposite6639" operator="in" result="composite1" in2="SourceGraphic" in="flood"/>
   <feGaussianBlur id="feGaussianBlur6641" stdDeviation="2" result="blur"/>
   <feOffset id="feOffset6643" result="offset" dx="4" dy="4"/>
   <feComposite id="feComposite6645" operator="over" result="composite2" in2="offset" in="SourceGraphic"/>
  </filter>
 </defs>
 <metadata id="metadata5753">
  <rdf:RDF>
   <cc:Work rdf:about="">
    <dc:format>image/svg+xml</dc:format>
    <dc:type rdf:resource="http://purl.org/dc/dcmitype/StillImage"/>
    <dc:title/>
   </cc:Work>
  </rdf:RDF>
 </metadata>
 <g id="layer1" transform="translate(-51.125,-366.3375)">
  <g id="g6390" filter="url(#filter6635)" stroke="#b3424a">
   <path id="path6342" fill="#b3424a" d="m116.03,389.28c-0.30259-0.88476-0.46667-1.842-0.84375-2.6875-1.8868-4.2304-4.6993-7.5039-8.4375-9.8125-3.7383-2.3085-8.0938-3.4687-13.062-3.4688-4.9453,0.00005-9.2617,1.1407-13,3.4375-1.3542,0.83204-2.5412,1.8482-3.6562,2.9375l7.75,1.9062c2.4557-1.7702,5.3895-2.75,8.9062-2.75,5.2031,0.00005,9.2617,1.9336,12.156,5.8125,0.56804,0.76123,1.0433,1.6279,1.5,2.5l8.6875,2.125z"/>
   <path id="path6340" fill="#ffffff" d="m116.03,389.28-8.6875-2.125c1.8704,3.5718,2.8437,8.0246,2.8438,13.469-0.00004,6.7735-1.4493,12.121-4.3438,16-2.8946,3.8789-6.9532,5.8125-12.156,5.8125-5.25,0-9.2852-1.9609-12.156-5.875-2.8711-3.914-4.3125-9.25-4.3125-16-0.000012-6.7265,1.4492-12.027,4.3438-15.906,0.93814-1.2572,2.0412-2.2136,3.2188-3.0625l-7.75-1.9062c-1.9631,1.9179-3.6018,4.177-4.8125,6.875-1.8984,4.2305-2.8438,8.9063-2.8438,14.062-0.000004,5.1563,0.96484,9.8516,2.875,14.094,1.9101,4.2422,4.7266,7.5273,8.5,9.8125s7.8594,3.4062,12.219,3.4062c1.1953,0,2.8906-0.10938,5.0938-0.34375,5.5312,3.6562,12.383,6.8203,20.562,9.4688l4.6875-5.875c-6.4219-1.125-12.648-3-18.625-5.625,4.7812-2.4609,8.1992-5.8789,10.25-10.25,2.0507-4.3711,3.0937-9.2187,3.0938-14.562-0.00005-4.1632-0.78862-7.9267-2-11.469z"/>
   <path id="path6338" fill="#b3424a" d="m135.34,394.06,0-19.438-7.375,0,0,17.594,7.375,1.8438z"/>
   <path id="path6336" fill="#b3424a" d="m165.31,401.44,0-26.812-6.4688,0,0,25.219,6.4688,1.5938z"/>
   <path id="path6334" fill="#ffffff" d="m165.31,401.44-6.4688-1.5938,0,7.8438c-0.00003,4.4063-0.46097,7.5625-1.375,9.4375-0.9141,1.875-2.211,3.2305-3.875,4.0625-1.6641,0.83204-3.6797,1.25-6.0938,1.25-3.8203,0-6.8047-1.0859-8.9375-3.2188-2.1328-2.1328-3.2188-6.0625-3.2188-11.781v-13.375l-7.375-1.8438v15.156c-0.00001,5.3672,0.71874,9.3828,2.125,12.031,1.4062,2.6484,3.4844,4.7266,6.25,6.25s6.3984,2.2812,10.875,2.2812c4.1953,0,7.5507-0.72265,10.094-2.1875,2.5429-1.4648,4.5117-3.4414,5.9062-5.9375s2.0937-6.5703,2.0938-12.219v-6.1562z"/>
   <path id="path6332" fill="#b3424a" d="m185.69,406.47,0-4.1875,18.188,0,0-5.4375-18.188,0,0-16.719,21.719,0,0-5.5-29.094,0,0,30.031,7.375,1.8125z"/>
   <path id="path6330" fill="#ffffff" d="m185.69,406.47-7.375-1.8125,0,22,30.594,0,0-5.5312-23.219,0,0-14.656z"/>
   <path id="path6328" fill="#b3424a" d="m243.53,420.72c1.5458-2.3312,2.3437-4.9017,2.3438-7.7812-0.00004-2.9766-0.7891-5.6094-2.4062-7.9062-1.6172-2.2734-4.8594-4.789-9.6875-7.5312l-3.7188-2.0938c-2.0156-1.1484-3.6016-2.1367-4.75-2.9688-1.1484-0.832-2.0391-1.8398-2.7188-3-0.67969-1.1601-1.0313-2.3125-1.0312-3.4375-0.00001-1.6406,0.71483-3.2422,2.1562-4.8125s3.6562-2.3437,6.6562-2.3438c1.4297,0.00005,2.8711,0.15239,4.3125,0.46875,1.4414,0.31645,4.1015,1.2266,7.9688,2.75v-6.75c-4.4532-1.3359-8.6797-2-12.688-2-3.3281,0.00005-6.0899,0.62505-8.2812,1.8438-2.1914,1.2188-3.9492,2.9063-5.25,5.0625-1.3008,2.1563-1.9375,4.4454-1.9375,6.9062-0.00001,2.7422,0.82812,5.25,2.4688,7.5,1.6406,2.25,4.8437,4.7188,9.625,7.4375l3.5938,2.0938c3.6328,2.0625,5.8984,3.7891,6.8125,5.2188,0.89059,1.4531,1.3437,3.0391,1.3438,4.75-0.00002,1.8422-0.74145,3.4194-1.875,4.8438l7.0625,1.75z"/>
   <path id="path5761" fill="#ffffff" d="m243.53,420.72-7.0625-1.75c-0.26534,0.33341-0.392,0.72228-0.71875,1.0312-1.7227,1.6289-4.086,2.4375-7.0625,2.4375-1.6406,0-3.4219-0.19531-5.3438-0.59375-1.9219-0.39843-4.9531-1.5781-9.125-3.5v7.3125c3.6328,1.0312,6.2969,1.6914,8.0312,1.9375,1.7344,0.24609,3.5547,0.34375,5.4062,0.34375,6,0,10.543-1.4922,13.625-4.4688,0.89326-0.8627,1.6191-1.7986,2.25-2.75z"/>
  </g>
 </g>
</svg>
