<?xml version="1.0" encoding="UTF-8" standalone="no"?>
<!-- Created with Inkscape (http://www.inkscape.org/) -->

<svg
   xmlns:dc="http://purl.org/dc/elements/1.1/"
   xmlns:cc="http://creativecommons.org/ns#"
   xmlns:rdf="http://www.w3.org/1999/02/22-rdf-syntax-ns#"
   xmlns:svg="http://www.w3.org/2000/svg"
   xmlns="http://www.w3.org/2000/svg"
   xmlns:sodipodi="http://sodipodi.sourceforge.net/DTD/sodipodi-0.dtd"
   xmlns:inkscape="http://www.inkscape.org/namespaces/inkscape"
   id="svg2"
   version="1.1"
   inkscape:version="0.48.4 r9939"
   width="299.995"
   height="300"
   xml:space="preserve"
   sodipodi:docname="logo_native_b01rgb.ai"><metadata
     id="metadata8"><rdf:RDF><cc:Work
         rdf:about=""><dc:format>image/svg+xml</dc:format><dc:type
           rdf:resource="http://purl.org/dc/dcmitype/StillImage" /><dc:title></dc:title></cc:Work></rdf:RDF></metadata><defs
     id="defs6"><clipPath
       clipPathUnits="userSpaceOnUse"
       id="clipPath16"><path
         d="m 0,595.276 841.89,0 L 841.89,0 0,0 0,595.276 z"
         id="path18"
         inkscape:connector-curvature="0" /></clipPath></defs><sodipodi:namedview
     pagecolor="#ffffff"
     bordercolor="#666666"
     borderopacity="1"
     objecttolerance="10"
     gridtolerance="10"
     guidetolerance="10"
     inkscape:pageopacity="0"
     inkscape:pageshadow="2"
     inkscape:window-width="1920"
     inkscape:window-height="1020"
     id="namedview4"
     showgrid="false"
     fit-margin-top="10.49"
     fit-margin-left="27.8"
     fit-margin-right="27.8"
     fit-margin-bottom="10.49"
     inkscape:zoom="0.42970725"
     inkscape:cx="154.65245"
     inkscape:cy="104.36073"
     inkscape:window-x="0"
     inkscape:window-y="27"
     inkscape:window-maximized="1"
     inkscape:current-layer="g10" /><g
     id="g10"
     inkscape:groupmode="layer"
     inkscape:label="logo_native_b01rgb"
     transform="matrix(1.25,0,0,-1.25,-376.18375,567.68625)"><path
       d="m 413.271,302.912 0,-7.345 c 1.151,-0.316 2.049,-1.214 2.366,-2.364 l 7.931,0 0,16.027 c -2.994,-2.687 -6.476,-4.841 -10.297,-6.318 m -0.9,-14.012 c -1.879,0 -3.4,1.524 -3.4,3.403 0,1.564 1.062,2.868 2.501,3.264 l 0,6.714 c -3.235,-1.041 -6.681,-1.611 -10.261,-1.611 -16.162,0 -29.65,11.451 -32.793,26.682 l -26.364,0 c 0.831,-4.053 1.739,-7.987 2.705,-11.831 l 11.329,0 c 0.397,1.44 1.702,2.503 3.267,2.503 1.877,0 3.401,-1.524 3.401,-3.402 0,-0.611 -0.174,-1.177 -0.457,-1.672 5.568,-5.567 19.34,-19.337 19.751,-19.747 l 13.952,0 6.327,-6.327 c 0.495,0.281 1.061,0.455 1.671,0.455 1.564,0 2.869,-1.061 3.266,-2.5 l 16.302,0 0,6.571 -7.931,0 c -0.397,-1.439 -1.701,-2.502 -3.266,-2.502 m -11.162,-33.486 c -1.877,0 -3.4,1.524 -3.4,3.402 0,1.567 1.062,2.87 2.501,3.266 l 0,7.522 c -0.491,0.492 -10.144,10.144 -10.634,10.634 l -4.733,0 c -0.396,-1.437 -1.701,-2.5 -3.265,-2.5 -1.565,0 -2.869,1.063 -3.266,2.5 l -7.42,0 c -0.397,-1.439 -1.701,-2.502 -3.265,-2.502 -1.879,0 -3.403,1.524 -3.403,3.403 0,1.88 1.524,3.403 3.403,3.403 1.564,0 2.868,-1.063 3.265,-2.503 l 7.42,0 c 0.076,0.274 0.184,0.531 0.32,0.773 l -17.705,17.704 c -0.496,-0.284 -1.061,-0.457 -1.672,-0.457 -1.879,0 -3.402,1.521 -3.402,3.4 0,1.879 1.523,3.402 3.402,3.402 1.877,0 3.401,-1.523 3.401,-3.402 0,-0.611 -0.174,-1.176 -0.455,-1.672 4.323,-4.322 13.582,-13.581 17.703,-17.702 0.496,0.282 1.062,0.457 1.674,0.457 1.564,0 2.869,-1.063 3.265,-2.503 l 5.478,0 11.688,-11.689 0,-8.268 c 1.44,-0.396 2.502,-1.699 2.502,-3.266 0,-1.878 -1.523,-3.402 -3.402,-3.402 M 404,280.527 c -1.879,0 -3.4,1.524 -3.4,3.404 0,0.611 0.173,1.176 0.456,1.672 l -5.8,5.799 -13.951,0 -20.278,20.275 c -0.496,-0.282 -1.06,-0.456 -1.672,-0.456 -1.565,0 -2.87,1.062 -3.267,2.501 l -10.878,0 c 3.238,-12.513 7.19,-23.887 11.843,-34.021 1.87,-4.07 3.861,-7.935 5.953,-11.613 l 9.902,0 0,2.289 6.377,-0.002 0,-6.377 -6.377,0 0,2.289 -8.87,0 c 2.548,-4.322 5.249,-8.363 8.101,-12.105 3.795,-0.805 7.607,-1.504 11.428,-2.121 l 0,7.128 6.326,6.325 c -0.737,1.299 -0.567,2.972 0.541,4.078 1.328,1.33 3.482,1.33 4.81,0 1.328,-1.328 1.328,-3.481 0,-4.809 -1.107,-1.107 -2.781,-1.279 -4.078,-0.541 -2.285,-2.285 -5.484,-5.482 -5.799,-5.799 l 0,-6.672 c 8.147,-1.253 16.344,-2.091 24.561,-2.501 l 0,26.503 c 4.545,-0.14 9.093,-0.193 13.64,-0.158 l 0,7.415 -16.302,0 c -0.397,-1.44 -1.702,-2.503 -3.266,-2.503"
       style="fill:#2f2725;fill-opacity:1;fill-rule:nonzero;stroke:none"
       id="path20"
       inkscape:connector-curvature="0" /><path
       d="m 423.533,262.004 0,-26.633 c -12.189,0.086 -24.379,1.102 -36.461,3.043 18.459,-15.414 34.588,-15.873 36.418,-15.873 1.889,0 19.018,0.49 38.219,17.42 8.057,7.103 15.262,16.086 21.516,26.803 -19.752,-3.287 -39.721,-4.873 -59.692,-4.76"
       style="fill:#2f2725;fill-opacity:1;fill-rule:nonzero;stroke:none"
       id="path22"
       inkscape:connector-curvature="0" /><path
       d="m 353.775,362.007 c 1.22,0 2.343,-0.401 3.257,-1.069 l -7.716,-7.716 c -0.669,0.914 -1.068,2.038 -1.068,3.257 0,3.053 2.475,5.528 5.527,5.528 m 5.528,-5.528 c 0,-3.052 -2.475,-5.527 -5.528,-5.527 -1.219,0 -2.343,0.4 -3.257,1.069 l 7.716,7.715 c 0.668,-0.914 1.069,-2.038 1.069,-3.257 m 31.869,64.645 7.715,-7.716 c -0.914,-0.669 -2.037,-1.067 -3.256,-1.067 -3.053,0 -5.529,2.474 -5.529,5.527 0,1.219 0.4,2.342 1.07,3.256 m 4.459,2.272 c 3.053,0 5.527,-2.475 5.527,-5.528 0,-1.221 -0.4,-2.344 -1.068,-3.258 l -7.715,7.717 c 0.914,0.668 2.037,1.069 3.256,1.069 m -56.052,-82.436 28.839,0 c 3.145,15.23 16.631,26.682 32.793,26.682 3.029,0 5.963,-0.405 8.754,-1.159 l 0,74.2 -75.722,-28.395 c 0,0 1.269,-39.969 3.475,-58.076 0.55,-4.52 1.171,-8.936 1.861,-13.252"
       style="fill:#2f2725;fill-opacity:1;fill-rule:nonzero;stroke:none"
       id="path24"
       inkscape:connector-curvature="0" /><path
       d="m 485.797,289.449 c -13.512,-2.592 -27.24,-4.385 -40.967,-5.344 l 0,13.356 c 7.381,-2.922 15.277,-4.443 23.35,-4.443 6.978,0 13.789,1.125 20.248,3.298 -0.848,-2.347 -1.725,-4.638 -2.631,-6.867 m -48.619,20.621 0,-34.088 c 18.127,0.842 36.211,3.086 54.092,6.731 3.804,8.738 7.113,18.342 9.914,28.764 -9.245,-6.791 -20.655,-10.805 -33.004,-10.805 -11.473,0 -22.135,3.463 -31.002,9.398"
       style="fill:#2f2725;fill-opacity:1;fill-rule:nonzero;stroke:none"
       id="path26"
       inkscape:connector-curvature="0" /><path
       d="m 431.225,434.714 c 8.111,-3.043 20.074,-7.529 39.589,-14.848 -0.876,0.037 -1.751,0.074 -2.634,0.074 -10.137,0 -19.828,-2.32 -28.801,-6.898 -2.84,-1.449 -5.559,-3.137 -8.154,-5.004 l 0,26.676 z m 36.955,-22.426 c 17.728,0 33.523,-8.267 43.746,-21.156 0.58,11.752 0.9,21.156 0.9,21.156 l -89.254,33.469 0,-55.74 c 10.184,13.525 26.373,22.271 44.608,22.271"
       style="fill:#2f2725;fill-opacity:1;fill-rule:nonzero;stroke:none"
       id="path28"
       inkscape:connector-curvature="0" /><path
       d="m 491.311,359.593 c -0.905,6.777 -4.715,12.635 -10.141,16.277 l 5.844,10.121 c 8.902,-5.691 15.054,-15.303 16.033,-26.398 l -11.736,0 z m -4.297,-32.626 -5.844,10.123 c 5.426,3.643 9.236,9.501 10.141,16.278 l 11.736,0 c -0.979,-11.096 -7.131,-20.707 -16.033,-26.401 m -18.834,-5.494 c -5.268,0 -10.262,1.166 -14.742,3.25 l 5.869,10.166 c 2.736,-1.125 5.732,-1.746 8.873,-1.746 3.695,0 7.191,0.859 10.297,2.391 l 5.843,-10.123 c -4.83,-2.514 -10.318,-3.938 -16.14,-3.938 m -20.129,6.365 c -8.602,6.057 -14.352,15.888 -14.842,27.087 l 11.686,0 c 0.453,-6.881 3.888,-12.947 9.025,-16.919 l -5.869,-10.168 z m 0,57.284 5.869,-10.168 c -5.137,-3.971 -8.572,-10.037 -9.025,-16.918 l -11.686,0 c 0.49,11.197 6.24,21.029 14.842,27.086 m 27.215,-35.73 c -3.916,-3.913 -10.26,-3.913 -14.174,0 -3.912,3.916 -3.912,10.261 0,14.175 3.914,3.914 10.258,3.914 14.174,0 3.912,-3.914 3.916,-10.261 0,-14.175 m -7.086,42.095 c 5.822,0 11.31,-1.424 16.14,-3.937 l -5.843,-10.123 c -3.106,1.531 -6.602,2.39 -10.297,2.39 -3.141,0 -6.137,-0.621 -8.873,-1.746 l -5.869,10.166 c 4.48,2.084 9.474,3.25 14.742,3.25 m -66.969,-62.432 c -2.818,0 -5.104,2.283 -5.104,5.102 0,2.818 2.286,5.101 5.104,5.101 2.816,0 5.102,-2.283 5.102,-5.101 0,-2.819 -2.286,-5.102 -5.102,-5.102 m 117.439,25.171 c 0.034,0.748 0.053,1.5 0.053,2.253 0,0.758 -0.019,1.508 -0.053,2.256 l -7.351,2.387 c -0.156,1.451 -0.381,2.883 -0.676,4.287 l 6.262,4.535 c -0.401,1.452 -0.864,2.877 -1.387,4.272 l -7.74,-0.009 c -0.594,1.323 -1.252,2.612 -1.971,3.861 l 4.549,6.261 c -0.828,1.254 -1.713,2.469 -2.648,3.641 l -7.346,-2.397 c -0.973,1.073 -1.996,2.098 -3.071,3.07 l 2.397,7.344 c -1.17,0.936 -2.385,1.821 -3.639,2.651 l -6.261,-4.549 c -1.25,0.719 -2.538,1.377 -3.862,1.971 l 0.01,7.74 c -1.396,0.523 -2.82,0.986 -4.271,1.387 l -4.536,-6.262 c -1.406,0.295 -2.836,0.52 -4.289,0.676 l -2.386,7.349 c -0.746,0.033 -1.498,0.053 -2.254,0.053 -0.756,0 -1.506,-0.02 -2.254,-0.053 l -2.389,-7.349 c -1.451,-0.156 -2.883,-0.381 -4.289,-0.676 l -4.533,6.262 c -1.449,-0.401 -2.875,-0.864 -4.27,-1.387 l 0.008,-7.74 c -1.324,-0.594 -2.613,-1.252 -3.863,-1.971 l -6.26,4.549 c -1.254,-0.83 -2.467,-1.715 -3.639,-2.651 l 2.397,-7.343 c -1.074,-0.973 -2.1,-1.997 -3.072,-3.071 l -7.344,2.397 c -0.936,-1.172 -1.818,-2.387 -2.649,-3.641 l 4.547,-6.26 c -0.718,-1.25 -1.377,-2.538 -1.97,-3.862 l -7.739,0.009 c -0.523,-1.395 -0.988,-2.82 -1.386,-4.272 l 6.259,-4.533 c -0.295,-1.406 -0.521,-2.838 -0.675,-4.291 l -7.35,-2.385 c -0.033,-0.748 -0.053,-1.498 -0.053,-2.256 0,-0.753 0.02,-1.505 0.053,-2.253 l 7.35,-2.387 c 0.154,-1.453 0.38,-2.884 0.673,-4.29 l -5.281,-3.825 2.791,4.14 c -0.66,1.059 -1.394,2.067 -2.195,3.016 l -5.736,-1.645 c -1.247,1.164 -2.623,2.187 -4.127,3.017 l -0.205,5.948 c -1.143,0.463 -2.327,0.85 -3.543,1.149 l -3.672,-4.702 c -0.838,0.104 -1.686,0.174 -2.553,0.174 -0.867,0 -1.715,-0.07 -2.555,-0.174 l -3.672,4.702 c -1.216,-0.299 -2.398,-0.686 -3.541,-1.149 l -0.207,-5.949 c -1.502,-0.83 -2.879,-1.852 -4.125,-3.016 l -5.736,1.645 c -0.801,-0.949 -1.535,-1.957 -2.195,-3.016 l 3.336,-4.949 c -0.719,-1.528 -1.262,-3.151 -1.588,-4.856 l -4.877,-1.775 -42.187,0 c -0.778,4.568 -1.482,9.24 -2.102,14.031 l -5.598,0 0,-8.964 -2.977,-1.241 0,-11.906 2.977,-1.241 0,-8.963 11.362,0 c -1.06,4.543 -2.026,9.227 -2.909,14.032 l 41.428,0 4.883,-1.78 c 0.326,-1.703 0.871,-3.326 1.588,-4.853 l -3.336,-4.949 c 0.66,-1.059 1.394,-2.067 2.195,-3.016 l 5.736,1.645 c 1.244,-1.164 2.623,-2.186 4.125,-3.016 l 0.207,-5.95 c 1.143,-0.465 2.325,-0.849 3.543,-1.148 l 3.672,4.702 c 0.838,-0.104 1.686,-0.174 2.553,-0.174 0.867,0 1.715,0.07 2.555,0.174 l 3.67,-4.702 c 1.216,0.299 2.4,0.685 3.543,1.148 l 0.205,5.948 c 1.504,0.832 2.882,1.854 4.127,3.018 l 5.736,-1.645 c 0.801,0.949 1.535,1.957 2.195,3.016 l -3.336,4.949 c 0.719,1.527 1.264,3.15 1.59,4.853 l 5.594,2.04 c 0.043,0.617 0.066,1.238 0.066,1.865 0,0.627 -0.023,1.248 -0.066,1.865 l -5.594,2.039 c -0.045,0.231 -0.103,0.455 -0.154,0.684 l 7.256,0.007 c 0.595,-1.324 1.252,-2.613 1.972,-3.863 l -4.547,-6.258 c 0.831,-1.254 1.713,-2.468 2.649,-3.64 l 7.344,2.396 c 0.97,-1.074 1.996,-2.099 3.07,-3.07 l -2.395,-7.344 c 1.172,-0.935 2.385,-1.818 3.639,-2.65 l 6.26,4.549 c 1.25,-0.721 2.539,-1.379 3.863,-1.973 l -0.01,-7.739 c 1.397,-0.523 2.823,-0.986 4.272,-1.387 l 4.533,6.261 c 1.406,-0.293 2.838,-0.52 4.289,-0.674 l 2.389,-7.352 c 0.748,-0.031 1.498,-0.051 2.254,-0.051 0.756,0 1.508,0.02 2.254,0.051 l 2.386,7.352 c 1.453,0.154 2.885,0.381 4.289,0.674 l 4.536,-6.261 c 1.451,0.401 2.875,0.864 4.271,1.387 l -0.01,7.739 c 1.324,0.596 2.614,1.252 3.864,1.973 l 6.259,-4.549 c 1.254,0.83 2.467,1.715 3.639,2.65 l -2.397,7.344 c 1.075,0.973 2.1,1.996 3.071,3.07 l 7.346,-2.396 c 0.935,1.172 1.818,2.386 2.648,3.64 l -4.549,6.26 c 0.719,1.25 1.377,2.537 1.971,3.861 l 7.742,-0.007 c 0.521,1.397 0.984,2.82 1.385,4.272 l -6.262,4.533 c 0.295,1.406 0.522,2.836 0.676,4.289 l 7.351,2.387 z"
       style="fill:#2f2725;fill-opacity:1;fill-rule:nonzero;stroke:none"
       id="path30"
       inkscape:connector-curvature="0" /></g></svg>